<svg id="Layer_1" data-name="Layer 1" xmlns="http://www.w3.org/2000/svg" viewBox="0 0 1920 5557.56"><path d="M1274.83,4727.61H1425.5a35.76,35.76,0,0,0,35.75-35.75v-49.55" style="fill:none;stroke:#999;stroke-linecap:round;stroke-linejoin:round;stroke-width:2px"/><path d="M371.31,4601.65v88.49a37.47,37.47,0,0,0,37.47,37.47H598.85" style="fill:none;stroke:#999;stroke-linecap:round;stroke-linejoin:round;stroke-width:2px"/><path d="M1377.82,1451.44v3H1154.06V1733.5a5.13,5.13,0,0,1-2.54,4.42l-.46.27-133.94,2.93a1.24,1.24,0,0,1-.64.18c-.44,0,.21-.61,0-1a1.83,1.83,0,0,1,.71-2.09l132.44-2.12a3,3,0,0,0,1.46-2.55V1452.94a1.5,1.5,0,0,1,1.5-1.5Z" style="fill:#999"/><rect x="1399.46" y="1335.02" width="3" height="0.03" style="fill:#999"/><path d="M1421.4,1308h-42.3a1.26,1.26,0,0,0-1.28,1.28v24.42a1.19,1.19,0,0,0,.09.47l.1.2.1.15a1.3,1.3,0,0,0,1,.46h42.3a1.3,1.3,0,0,0,1-.46l.1-.15.1-.2a1.19,1.19,0,0,0,.09-.47v-24.42A1.28,1.28,0,0,0,1421.4,1308Zm-1.27,24.42h-39.75v-21.87h39.76Z" style="fill:#999"/><path d="M1422.68,1333.74v120.7h-44.86v-120.7a1.29,1.29,0,0,0,1.28,1.31h42.3A1.29,1.29,0,0,0,1422.68,1333.74Z" style="fill:#999"/><path d="M1151.06,1573.89v-2.51c1,0,2,0,3,0v2.52C1153.06,1573.86,1152.05,1573.85,1151.06,1573.89Z" style="fill:#999"/><path d="M979.37,1863.17l-2.16,1.25a24.06,24.06,0,0,1-2.49,1.24,1.26,1.26,0,0,1-.88-1.21v-1.2a19.42,19.42,0,0,0,2.09-1l.47-.27v1.24Z" style="fill:#999"/><path d="M1212.22,2152.87a1.27,1.27,0,0,1-.59,1.45L985.71,2284.75c-5.06,2.92-11.71,4.38-18.36,4.38s-13.3-1.46-18.36-4.38L684.23,2131.09c-5.14-3-8-7-8-11.34s2.84-8.37,8-11.34l113.14-65.32c10.12-5.85,26.6-5.85,36.72,0l14.86,9.39a1.27,1.27,0,0,1-1.27,2.21l-14.86-9.39c-9.43-5.43-24.76-5.43-34.18,0l-113.13,65.32c-4.32,2.5-6.7,5.74-6.7,9.13s2.38,6.63,6.7,9.12l264.75,153.67c9.43,5.43,24.75,5.43,34.17,0l225.93-130.44a1.27,1.27,0,0,1,1.86.76Z" style="fill:#999"/><path d="M870.48,2067.66a1.33,1.33,0,0,1-.64-.17l-6.47-3.74a1.28,1.28,0,1,1,1.28-2.21l6.47,3.74a1.28,1.28,0,0,1-.64,2.38Z" style="fill:#999"/><path d="M893.87,2081.16a1.23,1.23,0,0,1-.64-.17l-8.08-4.67a1.27,1.27,0,0,1-.47-1.74,1.28,1.28,0,0,1,1.74-.47l8.09,4.67a1.28,1.28,0,0,1,.46,1.75A1.25,1.25,0,0,1,893.87,2081.16Z" style="fill:#999"/><path d="M1302.14,1954c0,4.33-2.84,8.36-8,11.33l-282.31,163c-5.06,2.92-11.71,4.38-18.36,4.38s-13.3-1.46-18.36-4.38l-67.32-38.87a1.28,1.28,0,0,1-.47-1.74,1.3,1.3,0,0,1,1.75-.47l67.31,38.87c9.43,5.44,24.75,5.44,34.17,0l282.31-163c4.32-2.49,6.7-5.74,6.7-9.12s-2.38-6.64-6.7-9.13l-83.42-48.17c-9.42-5.44-24.75-5.44-34.17,0L1011.85,1991c-10.12,5.85-26.6,5.85-36.73,0l-67-38.7a1.27,1.27,0,0,1-.18-2.08h0a1.27,1.27,0,0,1,1.46-.13l67,38.7c9.42,5.44,24.75,5.44,34.17,0L1174,1894.45c10.13-5.85,26.6-5.84,36.72,0l83.42,48.16C1299.3,1945.58,1302.14,1949.61,1302.14,1954Z" style="fill:#999"/><path d="M1017.42,1738.2H975.11a1.28,1.28,0,0,0-.9.37,1.26,1.26,0,0,0-.37.9v24.43a1.27,1.27,0,0,0,1.28,1.27h42.3a1.27,1.27,0,0,0,1.28-1.27v-24.43A1.27,1.27,0,0,0,1017.42,1738.2Zm-41,24.42v-21.87h39.75v21.87Z" style="fill:#999"/><path d="M1018.7,1763.89v100.56a1.27,1.27,0,0,1-1.27,1.28H975.12a1.05,1.05,0,0,1-.4-.07,24.06,24.06,0,0,0,2.49-1.24l2.16-1.25h-3v-1.24l-.47.27a19.42,19.42,0,0,1-2.09,1v-99.36a1.29,1.29,0,0,1,.38-.9,1.26,1.26,0,0,1,.9-.37h42.31A1.27,1.27,0,0,1,1018.7,1763.89Z" style="fill:#999"/><path d="M1007.3,2205.72a22.46,22.46,0,0,0-7.22-6.28c-12.48-7.21-32.78-7.21-45.26,0-6.28,3.63-9.75,8.53-9.75,13.8s3.47,10.17,9.75,13.8,14.44,5.41,22.63,5.41,16.39-1.81,22.63-5.41a26,26,0,0,0,2.9-1.92,21,21,0,0,0,2.06-1.75c3.12-3,4.79-6.47,4.78-10.13A12.87,12.87,0,0,0,1007.3,2205.72Zm-5.06,16.74,0,0a1.84,1.84,0,0,1-.22.17h0a23.14,23.14,0,0,1-3.17,2.16c-11.77,6.8-30.93,6.8-42.7,0-5.46-3.15-8.47-7.27-8.47-11.59s3-8.44,8.47-11.59c5.88-3.4,13.62-5.1,21.35-5.1s15.46,1.7,21.35,5.1c5.46,3.15,8.47,7.27,8.47,11.59C1007.27,2216.54,1005.51,2219.73,1002.24,2222.46Z" style="fill:#999"/><path d="M918.17,2151.6a22.61,22.61,0,0,0-7.23-6.28c-12.48-7.21-32.78-7.21-45.26,0-6.28,3.64-9.74,8.54-9.74,13.81s3.46,10.17,9.74,13.8,14.44,5.4,22.63,5.4,16.39-1.8,22.63-5.4,9.75-8.53,9.75-13.8A12.94,12.94,0,0,0,918.17,2151.6Zm-8.5,19.11c-11.78,6.79-30.94,6.79-42.71,0-5.46-3.16-8.47-7.27-8.47-11.59s3-8.44,8.47-11.59c5.89-3.4,13.62-5.1,21.35-5.1a50.87,50.87,0,0,1,11.37,1.27,37,37,0,0,1,10,3.83c5.47,3.15,8.48,7.27,8.48,11.59S915.13,2167.55,909.67,2170.71Z" style="fill:#999"/><path d="M825.59,2097c-12.48-7.2-32.78-7.2-45.26,0-6.28,3.63-9.75,8.53-9.75,13.8s3.47,10.18,9.75,13.8,14.44,5.41,22.63,5.41,16.39-1.8,22.63-5.41,9.75-8.52,9.75-13.8S831.87,2100.67,825.59,2097Zm-1.28,25.39c-11.77,6.8-30.93,6.8-42.7,0-5.46-3.15-8.47-7.27-8.47-11.59s3-8.43,8.47-11.59c5.88-3.4,13.62-5.1,21.35-5.1a50.78,50.78,0,0,1,11.36,1.27,37.17,37.17,0,0,1,10,3.83c5.46,3.16,8.47,7.27,8.47,11.59S829.77,2119.28,824.31,2122.43Z" style="fill:#999"/><path d="M1045.72,2249.91a1.3,1.3,0,0,1-.65-.18l-42.85-25.05a1.28,1.28,0,0,1,1.29-2.2l42.85,25.05a1.28,1.28,0,0,1-.64,2.38Z" style="fill:#999"/><path d="M842.48,2320.16H799.06a1.28,1.28,0,0,0-1.28,1.28v24.42a1.28,1.28,0,0,0,1.28,1.28h42.3a1.23,1.23,0,0,0,1.24-1,.57.57,0,0,0,0-.18.28.28,0,0,0,0-.09v-23.69Zm-2.4,24.42H800.33v-21.87h39.76Z" style="fill:#999"/><path d="M797.77,2345.86v120.7h44.86v-120.7a1.29,1.29,0,0,1-1.28,1.31h-42.3A1.29,1.29,0,0,1,797.77,2345.86Z" style="fill:#999"/><line x1="1211.23" y1="2153.14" x2="1211.23" y2="2011.23" style="fill:none;stroke:#999;stroke-linecap:round;stroke-linejoin:round;stroke-width:2px"/><line x1="996.27" y1="1992.71" x2="996.27" y2="1840.92" style="fill:none;stroke:#999;stroke-linecap:round;stroke-linejoin:round;stroke-width:2px"/><path d="M1536.62,3760.19c0,3.89-2.53,7.49-7.13,10.15l-175,102c-3.77,2.18-5.84,5-5.84,7.94s2.07,5.76,5.84,7.94l66.53,38.41a1.27,1.27,0,0,1,.08,2.15h0a1.28,1.28,0,0,1-1.36.06l-66.52-38.41c-4.6-2.65-7.13-6.26-7.13-10.15s2.53-7.5,7.13-10.15l175-102c3.77-2.17,5.85-5,5.85-7.93s-2.08-5.77-5.85-7.94l-275-158.79c-8.28-4.78-21.77-4.78-30,0l-92.25,53.26c-3.77,2.18-5.85,5-5.85,7.94s2.08,5.76,5.85,7.93L1268,3741.76c4.6,2.66,7.13,6.26,7.13,10.15s-2.53,7.5-7.13,10.15l-217.58,126.61c-9,5.19-23.62,5.19-32.61,0L540.88,3599.76a1.28,1.28,0,0,1,1.28-2.21l476.94,288.9c8.28,4.79,21.77,4.78,30.05,0l217.58-126.6c3.78-2.18,5.85-5,5.85-7.94s-2.07-5.76-5.85-7.94l-137.11-79.16c-4.6-2.66-7.13-6.26-7.13-10.15s2.53-7.5,7.12-10.15l92.25-53.26c9-5.19,23.62-5.19,32.61,0l275,158.78C1534.09,3752.69,1536.62,3756.29,1536.62,3760.19Z" style="fill:#999"/><rect x="1399.46" y="3359.27" width="3" height="0.03" style="fill:#999"/><path d="M920,4298.43a1.25,1.25,0,0,1-.59,1.44L693.49,4430.31c-5.06,2.92-11.71,4.38-18.36,4.38s-13.3-1.46-18.36-4.38l-331.7-191.5c-5.14-3-8-7-8-11.34s2.84-8.37,8-11.34l113.14-65.32c10.12-5.85,26.6-5.85,36.72,0l81.8,47.23a1.27,1.27,0,1,1-1.27,2.21L473.66,4153c-9.43-5.43-24.76-5.43-34.18,0l-113.13,65.32c-4.32,2.5-6.7,5.74-6.7,9.13s2.38,6.63,6.7,9.12L658,4428.1c9.43,5.43,24.75,5.43,34.17,0l225.93-130.44a1.27,1.27,0,0,1,1.86.76Z" style="fill:#999"/><path d="M578.26,4213.22a1.33,1.33,0,0,1-.64-.17l-6.47-3.74a1.28,1.28,0,1,1,1.28-2.21l6.47,3.73a1.28,1.28,0,0,1,.46,1.75A1.26,1.26,0,0,1,578.26,4213.22Z" style="fill:#999"/><path d="M601.65,4226.72a1.23,1.23,0,0,1-.64-.17l-8.08-4.67a1.27,1.27,0,0,1,1.27-2.21l8.09,4.67a1.28,1.28,0,0,1-.64,2.38Z" style="fill:#999"/><path d="M0,4245.16l420.38-240.42c9.42-5.44,24.75-5.44,34.17,0l228.36,131.84c10.13,5.85,26.6,5.85,36.72,0l163.44-94.36c9.42-5.44,24.75-5.44,34.17,0l83.42,48.16c4.32,2.5,6.71,5.74,6.71,9.13s-2.39,6.63-6.71,9.13l-282.3,163c-9.42,5.44-24.75,5.44-34.17,0l-67.32-38.87a1.27,1.27,0,0,0-1.27,2.21l67.31,38.87c5.07,2.92,11.71,4.38,18.36,4.38s13.3-1.46,18.37-4.38l282.3-163c5.15-3,8-7,8-11.34s-2.83-8.37-8-11.34L918.52,4040c-10.13-5.85-26.6-5.85-36.72,0l-163.44,94.36c-9.42,5.44-24.75,5.44-34.17,0L455.82,4002.53c-10.12-5.85-26.6-5.85-36.72,0L0,4242.21Z" style="fill:#999"/><path d="M1102.27,3757.31a1.28,1.28,0,0,1-.64-2.38l93.95-54.24a1.28,1.28,0,0,1,1.28,2.21l-93.95,54.24A1.33,1.33,0,0,1,1102.27,3757.31Z" style="fill:#999"/><path d="M1103.5,3606.84V3756a1.27,1.27,0,0,1-1.27,1.27h-42.31a1.27,1.27,0,0,1-1.28-1.27v-149.2a1.28,1.28,0,0,1,1.28-1.27h42.31A1.27,1.27,0,0,1,1103.5,3606.84Z" style="fill:#999"/><path d="M1102.23,3581.15h-42.31a1.28,1.28,0,0,0-1.28,1.27v24.43a1.27,1.27,0,0,0,1.28,1.27h42.31a1.27,1.27,0,0,0,1.27-1.27v-24.43A1.27,1.27,0,0,0,1102.23,3581.15Zm-1.28,24.42H1061.2V3583.7H1101Z" style="fill:#999"/><path d="M715.08,4351.29a22.29,22.29,0,0,0-7.23-6.29c-12.47-7.21-32.78-7.21-45.25,0-6.29,3.62-9.75,8.53-9.75,13.8s3.46,10.17,9.75,13.8,14.43,5.4,22.63,5.4,16.39-1.8,22.63-5.4a25.88,25.88,0,0,0,2.89-1.92,19.57,19.57,0,0,0,2.06-1.75c3.12-3,4.79-6.47,4.79-10.13A12.84,12.84,0,0,0,715.08,4351.29ZM710,4368.07a1.49,1.49,0,0,1-.2.15l0,0a23.63,23.63,0,0,1-3.14,2.14c-11.78,6.8-30.93,6.8-42.71,0-5.46-3.15-8.47-7.27-8.47-11.59s3-8.44,8.47-11.59c5.89-3.4,13.62-5.1,21.36-5.1s15.46,1.7,21.35,5.1c5.46,3.15,8.47,7.27,8.47,11.59C715.05,4362.13,713.27,4365.33,710,4368.07Z" style="fill:#999"/><path d="M636,4305.65a22.5,22.5,0,0,0-7.23-6.29c-12.48-7.21-32.78-7.21-45.26,0-6.29,3.63-9.75,8.53-9.75,13.8s3.46,10.17,9.75,13.8,14.43,5.41,22.63,5.41,16.39-1.81,22.63-5.41,9.74-8.53,9.74-13.8A13,13,0,0,0,636,4305.65Zm-8.51,19.1c-11.77,6.8-30.93,6.8-42.7,0-5.47-3.15-8.47-7.27-8.47-11.59s3-8.44,8.47-11.59c5.88-3.4,13.61-5.1,21.35-5.1a49.65,49.65,0,0,1,11.36,1.28,36.5,36.5,0,0,1,10,3.82c5.46,3.15,8.47,7.27,8.47,11.59S633,4321.6,627.53,4324.75Z" style="fill:#999"/><path d="M549.76,4253.72c-12.48-7.2-32.78-7.2-45.26,0-6.28,3.63-9.74,8.53-9.74,13.8s3.46,10.18,9.74,13.8,14.44,5.41,22.63,5.41,16.39-1.8,22.63-5.41,9.75-8.53,9.75-13.8S556.05,4257.35,549.76,4253.72Zm-1.28,25.39c-11.77,6.8-30.93,6.8-42.7,0-5.46-3.15-8.47-7.27-8.47-11.59s3-8.43,8.47-11.59c5.89-3.4,13.62-5.1,21.35-5.1a49.73,49.73,0,0,1,11.37,1.28,36.43,36.43,0,0,1,10,3.82c5.46,3.16,8.47,7.27,8.47,11.59S554,4276,548.48,4279.11Z" style="fill:#999"/><path d="M477.94,4214.37a20.69,20.69,0,0,0-5.4-5.14c-.58-.4-1.19-.78-1.83-1.15l-.65-.36c-12.52-6.84-32.34-6.72-44.6.36-6.29,3.63-9.75,8.53-9.75,13.8s3.46,10.18,9.75,13.81,14.43,5.4,22.62,5.4,16.39-1.8,22.63-5.4,9.75-8.53,9.75-13.81A12.84,12.84,0,0,0,477.94,4214.37Zm-8.5,19.1c-11.78,6.8-30.93,6.8-42.71,0-5.46-3.15-8.47-7.27-8.47-11.59s3-8.43,8.47-11.59c5.89-3.39,13.62-5.09,21.35-5.09s15.35,1.67,21.22,5l0,0,.1.06.15.09c5.37,3.15,8.32,7.22,8.32,11.5S474.9,4230.32,469.44,4233.47Z" style="fill:#999"/><path d="M470.08,4210.46a1.3,1.3,0,0,1-1.11-.63,1.28,1.28,0,0,1,.47-1.75l51.71-29.85a1.27,1.27,0,1,1,1.27,2.21l-51.7,29.85A1.23,1.23,0,0,1,470.08,4210.46Z" style="fill:#999"/><path d="M753.5,4395.46a1.29,1.29,0,0,1-.65-.17L710,4370.24a1.28,1.28,0,0,1,1.28-2.21l42.85,25.06a1.27,1.27,0,0,1-.64,2.37Z" style="fill:#999"/><path d="M558.14,4371a1.28,1.28,0,0,0-1.75-.47l-1.57.91-162.7,94.27H350.17a1.28,1.28,0,0,0-1.28,1.28v24.42a1.28,1.28,0,0,0,1.28,1.28h42.3a1.31,1.31,0,0,0,.91-.37,1.2,1.2,0,0,0,.26-.4,1.09,1.09,0,0,0,.07-.24.57.57,0,0,0,0-.18.28.28,0,0,0,0-.09v-23.69l163.63-94.8.29-.17A1.29,1.29,0,0,0,558.14,4371ZM391.19,4490.14H351.44v-21.87H391.2Z" style="fill:#999"/><path d="M393.74,4491.42v110.23H348.88V4491.42a1.29,1.29,0,0,0,1.28,1.31h42.3a1.25,1.25,0,0,0,.92-.4,1.2,1.2,0,0,0,.26-.4,1.09,1.09,0,0,0,.07-.24A1.24,1.24,0,0,0,393.74,4491.42Z" style="fill:#999"/><path d="M824.83,2463.56v3H818.7v117l1.5.36,1.5-.36v-118.5a1.5,1.5,0,0,0-1.5-1.5Z" style="fill:#999"/><rect x="800.19" y="2347.14" width="3" height="0.03" style="fill:#999"/><path d="M521.93,2756.3c0,3.89,2.53,7.49,7.13,10.15l162.43,93.77c3.77,2.18,5.84,5,5.84,7.94s-2.07,5.76-5.84,7.94l-149.14,86.45a1.27,1.27,0,0,0-.08,2.15h0a1.28,1.28,0,0,0,1.36.06l149.13-86.45c4.6-2.65,7.13-6.26,7.13-10.15s-2.53-7.5-7.13-10.15l-162.43-93.78c-3.77-2.17-5.85-5-5.85-7.93s2.08-5.77,5.85-7.94l275-158.79c8.28-4.78,21.77-4.78,30,0l92.25,53.26c3.77,2.18,5.85,5,5.85,7.94s-2.08,5.76-5.85,7.93l-137.12,79.17c-4.6,2.66-7.13,6.26-7.13,10.15s2.53,7.5,7.13,10.15l205,118.37c9,5.19,23.62,5.19,32.61,0l98.35-60.45a1.28,1.28,0,0,0-1.28-2.21l-98.35,60.44c-8.28,4.79-21.77,4.78-30.05,0L791.82,2756c-3.78-2.18-5.85-5-5.85-7.94s2.07-5.76,5.85-7.94l137.11-79.16c4.6-2.66,7.13-6.26,7.13-10.15s-2.53-7.5-7.12-10.15l-92.25-53.26c-9-5.19-23.62-5.19-32.61,0l-275,158.78C524.46,2748.8,521.93,2752.4,521.93,2756.3Z" style="fill:#999"/><path d="M250.08,2761.33c0,5.06,3.31,9.75,9.33,13.23L332.94,2817a1.27,1.27,0,0,0,1.28,0h0a1.28,1.28,0,0,0,0-2.21l-73.53-42.45c-5.19-3-8.06-6.92-8.06-11s2.87-8,8.06-11l232.19-134c11.23-6.48,29.5-6.48,40.72,0L645.38,2681a1.26,1.26,0,0,0,1.74-.46,1.29,1.29,0,0,0-.46-1.75L534.88,2614c-11.93-6.89-31.34-6.89-43.27,0L259.41,2748.1C253.39,2751.58,250.08,2756.27,250.08,2761.33Z" style="fill:#999"/><path d="M1366.05,3051.84c0,4.34-2.84,8.37-8,11.34l-229.75,132.64-2.56,1.48-99.39,57.38c-5.06,2.92-11.71,4.38-18.36,4.38s-13.3-1.46-18.36-4.38l-60.49-34.93a1.56,1.56,0,0,1-.28-.16,1.38,1.38,0,0,1-.34-.38,1.28,1.28,0,0,1,.46-1.75l.64-.37,2.54,1.46,58.75,33.92c9.42,5.43,24.74,5.43,34.17,0L1356.79,3061c4.32-2.49,6.7-5.73,6.7-9.12s-2.38-6.63-6.7-9.13l-113.13-65.32c-9.42-5.43-24.75-5.43-34.18,0l-45.58,26.32-2.55,1.47-33.67,19.44a1.27,1.27,0,1,1-1.27-2.21l34.32-19.81.14-.08,47.34-27.34c10.12-5.85,26.6-5.85,36.72,0l113.14,65.32C1363.21,3043.47,1366.05,3047.5,1366.05,3051.84Z" style="fill:#999"/><path d="M1104.88,3037.59a1.33,1.33,0,0,0,.64-.17l6.47-3.74a1.28,1.28,0,0,0,.47-1.74,1.29,1.29,0,0,0-1.75-.47l-6.47,3.74a1.28,1.28,0,0,0,.64,2.38Z" style="fill:#999"/><path d="M1081.49,3051.09a1.23,1.23,0,0,0,.64-.17l8.08-4.67a1.27,1.27,0,0,0-1.27-2.21l-8.09,4.67a1.28,1.28,0,0,0-.46,1.75A1.25,1.25,0,0,0,1081.49,3051.09Z" style="fill:#999"/><path d="M981.86,3102.59c6.65,0,13.3-1.46,18.37-4.38l67.31-38.87a1.27,1.27,0,0,0-1.27-2.21L999,3096c-9.42,5.44-24.75,5.44-34.17,0L753.1,2975.2c-4.32-2.49-6.7-5.74-6.7-9.12s2.38-6.64,6.7-9.13l83.42-48.17c9.42-5.44,24.75-5.44,34.17,0l163.44,94.36c10.12,5.85,26.6,5.85,36.73,0l228.36-131.84c9.42-5.44,24.75-5.44,34.17,0L1577.17,3012a1.27,1.27,0,0,0,1.74-.46,1.29,1.29,0,0,0-.47-1.75l-243.78-140.74c-10.12-5.85-26.59-5.85-36.72,0l-228.36,131.84c-9.42,5.44-24.75,5.44-34.17,0L872,2906.57c-10.13-5.85-26.6-5.84-36.73,0l-83.41,48.16c-5.15,3-8,7-8,11.35s2.84,8.36,8,11.33l211.68,120.8C968.56,3101.13,975.22,3102.59,981.86,3102.59Z" style="fill:#999"/><path d="M956.28,2753.42a1.26,1.26,0,0,0,1.1-.64,1.28,1.28,0,0,0-.46-1.75L863,2696.79a1.28,1.28,0,0,0-1.28,2.21l93.95,54.24A1.24,1.24,0,0,0,956.28,2753.42Z" style="fill:#999"/><path d="M998.54,2750.69a1.28,1.28,0,0,0-.9-.37H955.33a1.27,1.27,0,0,0-1.28,1.27V2776a1.28,1.28,0,0,0,1.28,1.28h42.3a1.28,1.28,0,0,0,1.28-1.28v-24.43A1.28,1.28,0,0,0,998.54,2750.69Zm-2.18,24H956.61v-21.87h39.75Z" style="fill:#999"/><path d="M491.9,2696.82H449.6a1.28,1.28,0,0,0-1.28,1.28v24.43a1.27,1.27,0,0,0,1.28,1.27h42.3a1.27,1.27,0,0,0,1.28-1.27V2698.1A1.28,1.28,0,0,0,491.9,2696.82Zm-1.27,24.43H450.87v-21.87h39.76Z" style="fill:#999"/><path d="M1020.54,3169.37c-6.24-3.61-14.44-5.41-22.63-5.41s-16.39,1.8-22.63,5.41-9.75,8.53-9.75,13.8c0,3.66,1.67,7.14,4.79,10.13a22.29,22.29,0,0,0,2.06,1.75,26,26,0,0,0,2.9,1.92c6.24,3.61,14.43,5.41,22.63,5.41s16.39-1.8,22.63-5.41,9.75-8.53,9.75-13.8S1026.82,3173,1020.54,3169.37Zm-1.28,25.39c-11.77,6.8-30.93,6.8-42.7,0a24.52,24.52,0,0,1-3.18-2.16l-.15-.13c-3.34-2.74-5.14-6-5.14-9.3,0-4.32,3-8.44,8.47-11.59,5.88-3.4,13.62-5.1,21.35-5.1s15.46,1.7,21.35,5.1c5.46,3.15,8.47,7.27,8.47,11.59S1024.72,3191.61,1019.26,3194.76Z" style="fill:#999"/><path d="M1109.33,3137.52c0,5.27-3.46,10.18-9.74,13.81s-14.44,5.4-22.63,5.4-16.39-1.8-22.63-5.4-9.75-8.53-9.75-13.81,3.46-10.17,9.75-13.8,14.44-5.4,22.64-5.4,16.38,1.8,22.62,5.4S1109.33,3132.25,1109.33,3137.52Z" style="fill:#999"/><path d="M1178.63,3078.09c-12.47-7.2-32.77-7.2-45.25,0-6.29,3.63-9.75,8.53-9.75,13.81s3.46,10.17,9.74,13.8,14.44,5.4,22.63,5.4,16.39-1.8,22.63-5.4,9.75-8.53,9.75-13.8S1184.92,3081.72,1178.63,3078.09Zm-1.27,25.4c-11.78,6.79-30.94,6.79-42.71,0-5.46-3.16-8.47-7.27-8.47-11.59s3-8.44,8.47-11.59c5.89-3.4,13.62-5.1,21.36-5.1s15.46,1.7,21.35,5.1c5.46,3.15,8.47,7.27,8.47,11.59S1182.82,3100.33,1177.36,3103.49Z" style="fill:#999"/><path d="M1257.68,3032.46c-6.24-3.6-14.44-5.41-22.63-5.41-7.91,0-15.82,1.69-22,5-.23.11-.44.24-.66.36-.64.37-1.25.75-1.83,1.15-5.12,3.47-7.91,7.92-7.91,12.65,0,5.27,3.46,10.17,9.74,13.8s14.44,5.4,22.63,5.4,16.39-1.8,22.63-5.4,9.75-8.53,9.75-13.8S1264,3036.08,1257.68,3032.46Zm-1.28,25.39c-11.77,6.8-30.93,6.8-42.7,0-5.46-3.16-8.47-7.27-8.47-11.59s3-8.43,8.46-11.59h0c5.89-3.4,13.62-5.1,21.35-5.1s15.47,1.7,21.35,5.1c5.47,3.15,8.47,7.27,8.47,11.59S1261.87,3054.69,1256.4,3057.85Z" style="fill:#999"/><path d="M1213.06,3034.84a1.28,1.28,0,0,0,.64-2.39L1162,3002.6a1.27,1.27,0,1,0-1.27,2.21l51.7,29.85A1.24,1.24,0,0,0,1213.06,3034.84Z" style="fill:#999"/><path d="M973.13,3194.61l-.75.44-40.2,23.5-1.9,1.11a1.24,1.24,0,0,1-.64.18,1.32,1.32,0,0,1-.48-.09,1.56,1.56,0,0,1-.28-.16,1.38,1.38,0,0,1-.34-.38,1.28,1.28,0,0,1,.46-1.75l.64-.37,40.68-23.79,1.52-.89a1.29,1.29,0,0,1,1.39.06l.15.13a1.39,1.39,0,0,1,.21.27A1.26,1.26,0,0,1,973.13,3194.61Z" style="fill:#999"/><polyline points="935.04 1119.45 935.04 1227.13 1400.25 1227.13 1400.25 1321.53" style="fill:none;stroke:#999;stroke-linecap:round;stroke-linejoin:round;stroke-width:2px"/><line x1="1078.47" y1="3155.42" x2="1080.56" y2="3593.4" style="fill:none;stroke:#999;stroke-miterlimit:10;stroke-width:2.5px"/></svg>