<svg xmlns="http://www.w3.org/2000/svg" width="100%" viewBox="0 0 289.6 49.81">
  <g id="Layer_2" data-name="Layer 2">
    <g id="Layer_1-2" data-name="Layer 1">
      <g id="Logo">
        <g>
          <path d="M26,11.31A7.15,7.15,0,0,0,24.4,9.25a3.8,3.8,0,0,0-2.63-.82,3.86,3.86,0,0,0-2.65.82,7.13,7.13,0,0,0-1.58,2.06L2.91,38.39H9.37L13,31.64H30.38L34,38.39h6.5ZM15.58,26.62l6.09-11.57,6.09,11.57Z"/>
          <path d="M89.21,32.85a8.82,8.82,0,0,1-2-.19A2.38,2.38,0,0,1,86,32a2.93,2.93,0,0,1-.61-1.38,11.11,11.11,0,0,1-.17-2.19V26.32h21.45v-5.2H85.18v-2A10.91,10.91,0,0,1,85.35,17,2.86,2.86,0,0,1,86,15.61a2.46,2.46,0,0,1,1.24-.75,6.84,6.84,0,0,1,2-.24h11.45V9.07H89.21a16.73,16.73,0,0,0-4.62.54,6.42,6.42,0,0,0-3,1.72,6.62,6.62,0,0,0-1.56,3.12,19.73,19.73,0,0,0-.48,4.69v9.2a19.65,19.65,0,0,0,.48,4.7,6.56,6.56,0,0,0,1.56,3.09,6.26,6.26,0,0,0,3,1.72,16.35,16.35,0,0,0,4.62.54h17.56V32.85Z"/>
          <path d="M120.36,32.8a8,8,0,0,1-2.2-.25,3.1,3.1,0,0,1-1.39-.84,3.39,3.39,0,0,1-.71-1.46,9.57,9.57,0,0,1-.21-2.18v-19h-5.57V28.34a19.7,19.7,0,0,0,.47,4.7,6.65,6.65,0,0,0,1.56,3.09,6.31,6.31,0,0,0,3,1.72,16.4,16.4,0,0,0,4.62.54h15.43V32.8Z"/>
          <path d="M163.81,31.64H146.38l-3.58,6.75h-6.46L151,11.31a7.11,7.11,0,0,1,1.59-2.06,4.66,4.66,0,0,1,5.28,0,7.26,7.26,0,0,1,1.58,2.06L174,38.39h-6.5Zm-14.81-5h12.18l-6.09-11.56Z"/>
          <path d="M189.13,36.24a6.73,6.73,0,0,1-1.59,2.07,4.8,4.8,0,0,1-5.09,0,6.73,6.73,0,0,1-1.59-2.07L166.39,9.08h6.79L185.1,31.73,197,9.08h6.68Z"/>
          <path d="M223.6,31.64H206.18l-3.58,6.75h-6.46l14.62-27.08a7.11,7.11,0,0,1,1.59-2.06A3.84,3.84,0,0,1,215,8.43a3.78,3.78,0,0,1,2.62.82,7.11,7.11,0,0,1,1.59,2.06l14.55,27.08h-6.5Zm-14.8-5H221l-6.09-11.56Z"/>
          <path d="M272,38.39a16.74,16.74,0,0,1-4.61-.53,6.48,6.48,0,0,1-2.95-1.72A6.75,6.75,0,0,1,262.9,33a20.25,20.25,0,0,1-.46-4.71V19.14a20.37,20.37,0,0,1,.46-4.69,6.77,6.77,0,0,1,1.57-3.12,6.39,6.39,0,0,1,2.95-1.72A16.74,16.74,0,0,1,272,9.08h11.13v5.54H272a6.89,6.89,0,0,0-2,.24,2.71,2.71,0,0,0-1.24.75,2.85,2.85,0,0,0-.62,1.38,11.61,11.61,0,0,0-.17,2.15v2h21.45v5.2H268v2.07a11.85,11.85,0,0,0,.17,2.19,2.93,2.93,0,0,0,.61,1.38,2.28,2.28,0,0,0,1.23.71,9.25,9.25,0,0,0,2,.19H289.6v5.54Z"/>
        </g>
        <polygon points="64.65 23.18 82.9 4.46 227.27 2.26 87.12 0.12 79.59 0 77.44 2.21 60.6 19.48 44.84 2.64 42.45 0.09 34.78 0.49 0 2.26 38.35 4.21 56.57 23.22 35.38 45.79 0 47.59 32.16 49.23 39.61 49.61 43.51 45.37 60.27 27.17 77.44 45.57 81.39 49.81 89.42 49.69 227.27 47.59 85.44 45.43 64.65 23.18" style="fill: #b20101"/>
        <path d="M241.53,38.46V14.75H230.46V9.11h28.08v5.64H247.46V38.46Z"/>
      </g>
    </g>
  </g>
</svg>
