<svg xmlns="http://www.w3.org/2000/svg" viewBox="0 0 95.69 95.69" width="95px">
  <g id="Layer_2" data-name="Layer 2">
    <g id="Layer_1-2" data-name="Layer 1">
      <g>
        <g>
          <circle cx="47.85" cy="47.85" r="47.85" style="fill: #efefef"/>
          <circle cx="47.85" cy="47.85" r="38.27" style="fill: #c1272d"/>
        </g>
        <path d="M63.91,40,48.85,25.78l0,0-.19-.13a1,1,0,0,0-.17-.1l0,0-.16,0-.2-.05h-.42l-.2.05-.17,0,0,0a1.51,1.51,0,0,0-.17.1,1.18,1.18,0,0,0-.18.13s0,0,0,0L31.79,40a1.46,1.46,0,0,0,2,2.13l12.6-11.9V68.84a1.46,1.46,0,0,0,2.92,0V30.23L61.9,42.13a1.46,1.46,0,0,0,2-2.13Z" style="fill: #efefef"/>
      </g>
    </g>
  </g>
</svg>
