<svg xmlns="http://www.w3.org/2000/svg" viewBox="0 0 289.6 49.81"><g id="Layer_2" data-name="Layer 2"><g id="Layer_1-2" data-name="Layer 1"><path d="M26,11.31A7.13,7.13,0,0,0,24.4,9.25a3.82,3.82,0,0,0-2.63-.83,3.86,3.86,0,0,0-2.65.83,7.15,7.15,0,0,0-1.59,2.06L2.91,38.39H9.37L13,31.64H30.38L34,38.39h6.5ZM15.58,26.62l6.09-11.57,6.09,11.57Z" style="fill:#f2f2f2"/><path d="M89.21,32.85a8.64,8.64,0,0,1-2-.2A2.28,2.28,0,0,1,86,31.94a2.84,2.84,0,0,1-.6-1.37,11.15,11.15,0,0,1-.17-2.2V26.31h21.44V21.12H85.18v-2A10.87,10.87,0,0,1,85.35,17,2.76,2.76,0,0,1,86,15.6a2.53,2.53,0,0,1,1.23-.74,6.87,6.87,0,0,1,2-.24h11.44V9.07H89.21a16.73,16.73,0,0,0-4.62.54,6.37,6.37,0,0,0-3,1.72,6.71,6.71,0,0,0-1.56,3.12,20.28,20.28,0,0,0-.47,4.68v9.21A20.08,20.08,0,0,0,80.07,33a6.69,6.69,0,0,0,1.56,3.1,6.29,6.29,0,0,0,3,1.72,16.35,16.35,0,0,0,4.62.54h17.56V32.85Z" style="fill:#f2f2f2"/><path d="M120.35,32.8a8,8,0,0,1-2.19-.25,3,3,0,0,1-1.39-.84,3.33,3.33,0,0,1-.71-1.46,9.57,9.57,0,0,1-.21-2.18v-19h-5.58V28.34a19.5,19.5,0,0,0,.48,4.69,6.6,6.6,0,0,0,1.56,3.1,6.26,6.26,0,0,0,3,1.72,16.35,16.35,0,0,0,4.62.54H135.3V32.8Z" style="fill:#f2f2f2"/><path d="M159.41,11.31a7.11,7.11,0,0,0-1.59-2.06,3.79,3.79,0,0,0-2.62-.82,3.87,3.87,0,0,0-2.66.82A7.26,7.26,0,0,0,151,11.31L136.34,38.39h6.46l3.58-6.75H163.8l3.66,6.75H174ZM149,26.61l6.09-11.56,6.09,11.56Z" style="fill:#f2f2f2"/><path d="M197,9.07,185.1,31.73,173.18,9.07h-6.79l14.47,27.17a6.57,6.57,0,0,0,1.58,2.07,4.82,4.82,0,0,0,5.1,0,6.57,6.57,0,0,0,1.58-2.07L203.67,9.07Z" style="fill:#f2f2f2"/><path d="M219.21,11.31a7.11,7.11,0,0,0-1.59-2.06A3.79,3.79,0,0,0,215,8.43a3.87,3.87,0,0,0-2.66.82,7.26,7.26,0,0,0-1.58,2.06L196.14,38.39h6.46l3.58-6.75H223.6l3.66,6.75h6.49ZM208.8,26.61l6.09-11.56L221,26.61Z" style="fill:#f2f2f2"/><path d="M272,32.85a8.6,8.6,0,0,1-2-.2,2.28,2.28,0,0,1-1.24-.71,2.94,2.94,0,0,1-.61-1.37,12,12,0,0,1-.16-2.19V26.31h21.44v-5.2H268v-2a11.79,11.79,0,0,1,.16-2.15,2.77,2.77,0,0,1,.63-1.37,2.55,2.55,0,0,1,1.24-.75,6.84,6.84,0,0,1,2-.24h11.12V9.07H272a16.7,16.7,0,0,0-4.61.54,6.43,6.43,0,0,0-3,1.72,6.87,6.87,0,0,0-1.57,3.12,20.91,20.91,0,0,0-.46,4.68v9.2a20.82,20.82,0,0,0,.46,4.71,6.76,6.76,0,0,0,1.57,3.09,6.34,6.34,0,0,0,3,1.72,16.7,16.7,0,0,0,4.61.54H289.6V32.85Z" style="fill:#f2f2f2"/><polygon points="64.65 23.18 82.9 4.46 227.27 2.26 87.12 0.12 79.59 0 77.44 2.21 60.6 19.48 44.84 2.64 42.45 0.09 34.78 0.49 0 2.26 38.35 4.21 56.57 23.22 35.38 45.79 0 47.59 32.16 49.23 39.61 49.61 43.51 45.37 60.27 27.17 77.44 45.57 81.39 49.81 89.42 49.69 227.27 47.59 85.44 45.43 64.65 23.18" style="fill:#b20101"/><path d="M230.45,9.11v5.64h11.08V38.46h5.93V14.75h11.07V9.11Z" style="fill:#f2f2f2"/></g></g></svg>