<svg xmlns="http://www.w3.org/2000/svg" xmlns:xlink="http://www.w3.org/1999/xlink" width="825.46" height="639.78" viewBox="0 0 825.46 639.78">
  <defs>
    <linearGradient id="linear-gradient" x1="205.27" y1="476.03" x2="680.63" y2="476.03" gradientUnits="userSpaceOnUse">
      <stop offset="0" stop-color="#5c8cea"/>
      <stop offset="0.55" stop-color="#557de6"/>
      <stop offset="1" stop-color="#5377e4"/>
    </linearGradient>
    <linearGradient id="New_Gradient_Swatch_copy_29" data-name="New Gradient Swatch copy 29" x1="348.8" y1="142.65" x2="538.1" y2="85.97" gradientUnits="userSpaceOnUse">
      <stop offset="0" stop-color="#970000"/>
      <stop offset="1" stop-color="#a11a1a"/>
    </linearGradient>
    <linearGradient id="New_Gradient_Swatch_copy_29-2" x1="123.34" y1="181.13" x2="371.13" y2="125.58" xlink:href="#New_Gradient_Swatch_copy_29"/>
    <linearGradient id="New_Gradient_Swatch_copy_31" data-name="New Gradient Swatch copy 31" x1="302" y1="216.14" x2="302" y2="66.36" gradientUnits="userSpaceOnUse">
      <stop offset="0.03" stop-color="#af3b3b"/>
      <stop offset="0.51" stop-color="#c15f5f"/>
      <stop offset="1" stop-color="#d68787"/>
    </linearGradient>
    <linearGradient id="New_Gradient_Swatch_copy_31-2" x1="313.48" y1="215.14" x2="313.48" y2="65.36" xlink:href="#New_Gradient_Swatch_copy_31"/>
    <linearGradient id="New_Gradient_Swatch_copy_31-3" x1="324.96" y1="214.13" x2="324.96" y2="64.36" xlink:href="#New_Gradient_Swatch_copy_31"/>
    <linearGradient id="New_Gradient_Swatch_copy_31-4" x1="8576.68" y1="206.2" x2="8576.68" y2="57.77" gradientTransform="matrix(-1, 0, 0, 1, 8951.72, 0)" xlink:href="#New_Gradient_Swatch_copy_31"/>
    <linearGradient id="New_Gradient_Swatch_copy_31-5" x1="8587.99" y1="205.12" x2="8587.99" y2="56.68" gradientTransform="matrix(-1, 0, 0, 1, 8951.72, 0)" xlink:href="#New_Gradient_Swatch_copy_31"/>
    <linearGradient id="New_Gradient_Swatch_copy_31-6" x1="8599.3" y1="204.03" x2="8599.3" y2="55.6" gradientTransform="matrix(-1, 0, 0, 1, 8951.72, 0)" xlink:href="#New_Gradient_Swatch_copy_31"/>
    <linearGradient id="New_Gradient_Swatch_copy_29-3" x1="389.96" y1="-56.02" x2="334.96" y2="48.8" xlink:href="#New_Gradient_Swatch_copy_29"/>
    <linearGradient id="New_Gradient_Swatch_copy_29-4" x1="348.28" y1="42.33" x2="423.64" y2="19.76" xlink:href="#New_Gradient_Swatch_copy_29"/>
    <linearGradient id="New_Gradient_Swatch_copy_29-5" x1="275.53" y1="51.36" x2="373.47" y2="29.41" xlink:href="#New_Gradient_Swatch_copy_29"/>
    <linearGradient id="New_Gradient_Swatch_copy_32" data-name="New Gradient Swatch copy 32" x1="314.74" y1="44.95" x2="314.74" y2="28.69" gradientUnits="userSpaceOnUse">
      <stop offset="0.04" stop-color="#a80000"/>
      <stop offset="0.19" stop-color="#ad0f0f"/>
      <stop offset="0.5" stop-color="#bb3838"/>
      <stop offset="0.91" stop-color="#d17979"/>
      <stop offset="1" stop-color="#d68787"/>
    </linearGradient>
    <linearGradient id="New_Gradient_Swatch_copy_32-2" x1="323.07" y1="48.97" x2="323.07" y2="32.75" xlink:href="#New_Gradient_Swatch_copy_32"/>
    <linearGradient id="New_Gradient_Swatch_copy_32-3" x1="331.4" y1="53" x2="331.4" y2="36.82" xlink:href="#New_Gradient_Swatch_copy_32"/>
    <linearGradient id="New_Gradient_Swatch_copy_32-4" x1="8570.87" y1="44.71" x2="8570.87" y2="28.67" gradientTransform="matrix(-1, 0, 0, 1, 8933.54, 0)" xlink:href="#New_Gradient_Swatch_copy_32"/>
    <linearGradient id="New_Gradient_Swatch_copy_32-5" x1="8579.21" y1="48.86" x2="8579.21" y2="32.75" gradientTransform="matrix(-1, 0, 0, 1, 8933.54, 0)" xlink:href="#New_Gradient_Swatch_copy_32"/>
    <linearGradient id="New_Gradient_Swatch_copy_32-6" x1="8587.56" y1="53" x2="8587.56" y2="36.82" gradientTransform="matrix(-1, 0, 0, 1, 8933.54, 0)" xlink:href="#New_Gradient_Swatch_copy_32"/>
    <linearGradient id="New_Gradient_Swatch_copy_29-6" x1="370.7" y1="-40.11" x2="336.42" y2="25.21" xlink:href="#New_Gradient_Swatch_copy_29"/>
    <linearGradient id="New_Gradient_Swatch_copy_29-7" x1="343.72" y1="20.5" x2="382.81" y2="8.79" xlink:href="#New_Gradient_Swatch_copy_29"/>
    <linearGradient id="New_Gradient_Swatch_copy_29-8" x1="306.01" y1="25.18" x2="356.82" y2="13.79" xlink:href="#New_Gradient_Swatch_copy_29"/>
    <linearGradient id="New_Gradient_Swatch_copy_30" data-name="New Gradient Swatch copy 30" x1="344.14" y1="15.14" x2="377.71" y2="5.08" gradientUnits="userSpaceOnUse">
      <stop offset="0.04" stop-color="#af3b3b"/>
      <stop offset="0.3" stop-color="#b54a4a"/>
      <stop offset="0.82" stop-color="#c67373"/>
      <stop offset="1" stop-color="#cc8282"/>
    </linearGradient>
    <linearGradient id="New_Gradient_Swatch_copy_30-2" x1="309.59" y1="19.15" x2="353.08" y2="9.4" xlink:href="#New_Gradient_Swatch_copy_30"/>
    <linearGradient id="New_Gradient_Swatch_copy_29-9" x1="355.32" y1="-22.26" x2="337.58" y2="11.55" xlink:href="#New_Gradient_Swatch_copy_29"/>
    <linearGradient id="New_Gradient_Swatch_copy_29-10" x1="286.79" y1="257.35" x2="409.93" y2="220.48" xlink:href="#New_Gradient_Swatch_copy_29"/>
    <linearGradient id="New_Gradient_Swatch_copy_29-11" x1="161.38" y1="272.07" x2="320.99" y2="236.29" xlink:href="#New_Gradient_Swatch_copy_29"/>
    <linearGradient id="New_Gradient_Swatch_copy_29-12" x1="327.08" y1="120.6" x2="263.52" y2="241.73" xlink:href="#New_Gradient_Swatch_copy_29"/>
    <linearGradient id="New_Gradient_Swatch_copy_29-13" x1="278.39" y1="174.03" x2="462.13" y2="119.01" xlink:href="#New_Gradient_Swatch_copy_29"/>
    <linearGradient id="New_Gradient_Swatch_copy_29-14" x1="125.69" y1="196.23" x2="366.12" y2="142.34" xlink:href="#New_Gradient_Swatch_copy_29"/>
    <linearGradient id="New_Gradient_Swatch_copy_31-7" x1="243.34" y1="244.9" x2="243.34" y2="102.63" xlink:href="#New_Gradient_Swatch_copy_31"/>
    <linearGradient id="New_Gradient_Swatch_copy_31-8" x1="243.34" y1="244.9" x2="243.34" y2="102.63" xlink:href="#New_Gradient_Swatch_copy_31"/>
    <linearGradient id="New_Gradient_Swatch_copy_31-9" x1="243.34" y1="244.9" x2="243.34" y2="102.63" xlink:href="#New_Gradient_Swatch_copy_31"/>
    <linearGradient id="New_Gradient_Swatch_copy_31-10" x1="243.34" y1="244.9" x2="243.34" y2="102.63" xlink:href="#New_Gradient_Swatch_copy_31"/>
    <linearGradient id="New_Gradient_Swatch_copy_31-11" x1="243.34" y1="244.9" x2="243.34" y2="102.63" xlink:href="#New_Gradient_Swatch_copy_31"/>
    <linearGradient id="New_Gradient_Swatch_copy_31-12" x1="243.34" y1="244.9" x2="243.34" y2="102.63" xlink:href="#New_Gradient_Swatch_copy_31"/>
    <linearGradient id="New_Gradient_Swatch_copy_31-15" x1="243.34" y1="244.9" x2="243.34" y2="102.63" xlink:href="#New_Gradient_Swatch_copy_31"/>
    <linearGradient id="New_Gradient_Swatch_copy_31-17" x1="243.34" y1="244.9" x2="243.34" y2="102.63" xlink:href="#New_Gradient_Swatch_copy_31"/>
    <linearGradient id="New_Gradient_Swatch_copy_31-18" x1="243.34" y1="244.9" x2="243.34" y2="102.63" xlink:href="#New_Gradient_Swatch_copy_31"/>
    <linearGradient id="New_Gradient_Swatch_copy_31-19" x1="243.34" y1="244.9" x2="243.34" y2="102.63" xlink:href="#New_Gradient_Swatch_copy_31"/>
    <linearGradient id="New_Gradient_Swatch_copy_31-20" x1="220.3" y1="238.55" x2="220.3" y2="94.49" gradientTransform="matrix(-1, 0, 0, 1, 513.03, 0)" xlink:href="#New_Gradient_Swatch_copy_31"/>
    <linearGradient id="New_Gradient_Swatch_copy_31-21" x1="220.3" y1="238.55" x2="220.3" y2="94.49" gradientTransform="matrix(-1, 0, 0, 1, 513.03, 0)" xlink:href="#New_Gradient_Swatch_copy_31"/>
    <linearGradient id="New_Gradient_Swatch_copy_31-22" x1="220.3" y1="238.55" x2="220.3" y2="94.49" gradientTransform="matrix(-1, 0, 0, 1, 513.03, 0)" xlink:href="#New_Gradient_Swatch_copy_31"/>
    <linearGradient id="New_Gradient_Swatch_copy_31-23" x1="220.3" y1="238.55" x2="220.3" y2="94.49" gradientTransform="matrix(-1, 0, 0, 1, 513.03, 0)" xlink:href="#New_Gradient_Swatch_copy_31"/>
    <linearGradient id="New_Gradient_Swatch_copy_31-24" x1="220.3" y1="238.55" x2="220.3" y2="94.49" gradientTransform="matrix(-1, 0, 0, 1, 513.03, 0)" xlink:href="#New_Gradient_Swatch_copy_31"/>
    <linearGradient id="New_Gradient_Swatch_copy_31-27" x1="220.3" y1="238.55" x2="220.3" y2="94.49" gradientTransform="matrix(-1, 0, 0, 1, 513.03, 0)" xlink:href="#New_Gradient_Swatch_copy_31"/>
    <linearGradient id="New_Gradient_Swatch_copy_31-29" x1="220.3" y1="238.55" x2="220.3" y2="94.49" gradientTransform="matrix(-1, 0, 0, 1, 513.03, 0)" xlink:href="#New_Gradient_Swatch_copy_31"/>
    <linearGradient id="New_Gradient_Swatch_copy_31-30" x1="220.3" y1="238.55" x2="220.3" y2="94.49" gradientTransform="matrix(-1, 0, 0, 1, 513.03, 0)" xlink:href="#New_Gradient_Swatch_copy_31"/>
    <linearGradient id="New_Gradient_Swatch_copy_31-31" x1="220.3" y1="238.55" x2="220.3" y2="94.49" gradientTransform="matrix(-1, 0, 0, 1, 513.03, 0)" xlink:href="#New_Gradient_Swatch_copy_31"/>
    <linearGradient id="New_Gradient_Swatch_copy_31-32" x1="220.3" y1="238.55" x2="220.3" y2="94.49" gradientTransform="matrix(-1, 0, 0, 1, 513.03, 0)" xlink:href="#New_Gradient_Swatch_copy_31"/>
    <linearGradient id="New_Gradient_Swatch_copy_29-15" x1="319.13" y1="-19.24" x2="264.12" y2="85.58" xlink:href="#New_Gradient_Swatch_copy_29"/>
    <linearGradient id="linear-gradient-2" x1="291.7" y1="193.34" x2="234.45" y2="165.58" gradientUnits="userSpaceOnUse">
      <stop offset="0" stop-color="#989393"/>
      <stop offset="0.04" stop-color="#8a8686"/>
      <stop offset="0.2" stop-color="#605d5d"/>
      <stop offset="0.35" stop-color="#3e3b3b"/>
      <stop offset="0.51" stop-color="#232121"/>
      <stop offset="0.67" stop-color="#0f0f0f"/>
      <stop offset="0.83" stop-color="#040404"/>
      <stop offset="1"/>
    </linearGradient>
    <linearGradient id="New_Gradient_Swatch_copy_29-16" x1="8677.06" y1="13209.25" x2="8638.12" y2="13283.46" gradientTransform="translate(8908.86 13356.32) rotate(180)" xlink:href="#New_Gradient_Swatch_copy_29"/>
    <linearGradient id="New_Gradient_Swatch_copy_29-17" x1="221.75" y1="79.81" x2="288.19" y2="58.16" xlink:href="#New_Gradient_Swatch_copy_29"/>
    <linearGradient id="New_Gradient_Swatch_copy_29-18" x1="279.52" y1="70.99" x2="302.16" y2="61.09" xlink:href="#New_Gradient_Swatch_copy_29"/>
    <linearGradient id="New_Gradient_Swatch_copy_29-19" x1="420.43" y1="182.15" x2="609.73" y2="125.47" xlink:href="#New_Gradient_Swatch_copy_29"/>
    <linearGradient id="New_Gradient_Swatch_copy_29-20" x1="264.56" y1="205.03" x2="512.35" y2="149.49" xlink:href="#New_Gradient_Swatch_copy_29"/>
    <linearGradient id="New_Gradient_Swatch_copy_31-33" x1="385.57" y1="251.68" x2="385.57" y2="107.58" xlink:href="#New_Gradient_Swatch_copy_31"/>
    <linearGradient id="New_Gradient_Swatch_copy_31-35" x1="385.57" y1="251.68" x2="385.57" y2="107.58" xlink:href="#New_Gradient_Swatch_copy_31"/>
    <linearGradient id="New_Gradient_Swatch_copy_31-41" x1="385.57" y1="251.68" x2="385.57" y2="107.58" xlink:href="#New_Gradient_Swatch_copy_31"/>
    <linearGradient id="New_Gradient_Swatch_copy_31-46" x1="405.25" y1="237.93" x2="447.33" y2="48.58" xlink:href="#New_Gradient_Swatch_copy_31"/>
    <linearGradient id="New_Gradient_Swatch_copy_31-47" x1="407.71" y1="238.47" x2="449.79" y2="49.13" xlink:href="#New_Gradient_Swatch_copy_31"/>
    <linearGradient id="New_Gradient_Swatch_copy_31-48" x1="410.18" y1="239.02" x2="452.26" y2="49.68" xlink:href="#New_Gradient_Swatch_copy_31"/>
    <linearGradient id="New_Gradient_Swatch_copy_31-49" x1="412.65" y1="239.57" x2="454.72" y2="50.22" xlink:href="#New_Gradient_Swatch_copy_31"/>
    <linearGradient id="New_Gradient_Swatch_copy_31-50" x1="415.11" y1="240.12" x2="457.19" y2="50.77" xlink:href="#New_Gradient_Swatch_copy_31"/>
    <linearGradient id="New_Gradient_Swatch_copy_31-51" x1="417.58" y1="240.67" x2="459.65" y2="51.32" xlink:href="#New_Gradient_Swatch_copy_31"/>
    <linearGradient id="New_Gradient_Swatch_copy_31-52" x1="420.04" y1="241.21" x2="462.12" y2="51.87" xlink:href="#New_Gradient_Swatch_copy_31"/>
    <linearGradient id="New_Gradient_Swatch_copy_31-53" x1="422.51" y1="241.76" x2="464.59" y2="52.42" xlink:href="#New_Gradient_Swatch_copy_31"/>
    <linearGradient id="New_Gradient_Swatch_copy_31-54" x1="424.97" y1="242.31" x2="467.05" y2="52.96" xlink:href="#New_Gradient_Swatch_copy_31"/>
    <linearGradient id="New_Gradient_Swatch_copy_31-55" x1="427.44" y1="242.86" x2="469.52" y2="53.51" xlink:href="#New_Gradient_Swatch_copy_31"/>
    <linearGradient id="New_Gradient_Swatch_copy_31-56" x1="429.91" y1="243.4" x2="471.98" y2="54.06" xlink:href="#New_Gradient_Swatch_copy_31"/>
    <linearGradient id="New_Gradient_Swatch_copy_31-57" x1="432.37" y1="243.95" x2="474.45" y2="54.61" xlink:href="#New_Gradient_Swatch_copy_31"/>
    <linearGradient id="New_Gradient_Swatch_copy_31-58" x1="434.84" y1="244.5" x2="476.91" y2="55.16" xlink:href="#New_Gradient_Swatch_copy_31"/>
    <linearGradient id="New_Gradient_Swatch_copy_29-21" x1="461.59" y1="-16.52" x2="406.59" y2="88.31" xlink:href="#New_Gradient_Swatch_copy_29"/>
    <linearGradient id="linear-gradient-3" x1="371.82" y1="225.77" x2="399.9" y2="129.26" xlink:href="#linear-gradient-2"/>
    <linearGradient id="New_Gradient_Swatch_copy_29-22" x1="397.36" y1="264.49" x2="526.35" y2="225.87" xlink:href="#New_Gradient_Swatch_copy_29"/>
    <linearGradient id="New_Gradient_Swatch_copy_29-23" x1="286.02" y1="273.83" x2="442.39" y2="238.78" xlink:href="#New_Gradient_Swatch_copy_29"/>
    <linearGradient id="linear-gradient-4" x1="379.36" y1="258.92" x2="441.23" y2="240.4" gradientUnits="userSpaceOnUse">
      <stop offset="0" stop-color="#a11a1a"/>
      <stop offset="0.24" stop-color="#c02929"/>
      <stop offset="0.56" stop-color="#e23939"/>
      <stop offset="0.83" stop-color="#f74343"/>
      <stop offset="1" stop-color="#ff4747"/>
    </linearGradient>
    <linearGradient id="linear-gradient-5" x1="302.29" y1="259.22" x2="437.18" y2="228.98" gradientUnits="userSpaceOnUse">
      <stop offset="0.08" stop-color="#a11a1a"/>
      <stop offset="0.19" stop-color="#b02121"/>
      <stop offset="0.41" stop-color="#d93535"/>
      <stop offset="0.59" stop-color="#ff4747"/>
      <stop offset="1" stop-color="#fe5656"/>
    </linearGradient>
    <linearGradient id="New_Gradient_Swatch_copy_29-24" x1="399.55" y1="184.16" x2="372.19" y2="236.31" xlink:href="#New_Gradient_Swatch_copy_29"/>
    <linearGradient id="New_Gradient_Swatch_copy_31-59" x1="362.31" y1="276.52" x2="362.31" y2="172.38" xlink:href="#New_Gradient_Swatch_copy_31"/>
    <linearGradient id="New_Gradient_Swatch_copy_31-60" x1="398.78" y1="282.67" x2="398.78" y2="213.84" xlink:href="#New_Gradient_Swatch_copy_31"/>
    <linearGradient id="linear-gradient-6" x1="370.37" y1="285.45" x2="359.58" y2="245.97" xlink:href="#linear-gradient-2"/>
    <linearGradient id="New_Gradient_Swatch_copy_29-25" x1="423.2" y1="90.24" x2="506.29" y2="65.36" xlink:href="#New_Gradient_Swatch_copy_29"/>
    <linearGradient id="New_Gradient_Swatch_copy_29-26" x1="338.58" y1="100.17" x2="446.28" y2="76.03" xlink:href="#New_Gradient_Swatch_copy_29"/>
    <linearGradient id="New_Gradient_Swatch_copy_30-3" x1="423.4" y1="87.67" x2="503.84" y2="63.58" xlink:href="#New_Gradient_Swatch_copy_30"/>
    <linearGradient id="New_Gradient_Swatch_copy_30-4" x1="340.3" y1="97.27" x2="444.49" y2="73.92" xlink:href="#New_Gradient_Swatch_copy_30"/>
    <linearGradient id="New_Gradient_Swatch_copy_29-27" x1="450.39" y1="-2.04" x2="407.5" y2="79.7" xlink:href="#New_Gradient_Swatch_copy_29"/>
    <linearGradient id="New_Gradient_Swatch_copy_29-28" x1="416.72" y1="76.37" x2="463.33" y2="62.42" xlink:href="#New_Gradient_Swatch_copy_29"/>
    <linearGradient id="New_Gradient_Swatch_copy_29-29" x1="371.36" y1="81.96" x2="431.91" y2="68.39" xlink:href="#New_Gradient_Swatch_copy_29"/>
    <linearGradient id="linear-gradient-7" x1="417.03" y1="73.97" x2="459.57" y2="61.23" xlink:href="#linear-gradient-4"/>
    <linearGradient id="linear-gradient-8" x1="373.99" y1="79.06" x2="429.16" y2="66.69" xlink:href="#linear-gradient-5"/>
    <linearGradient id="New_Gradient_Swatch_copy_29-30" x1="430.79" y1="25.27" x2="409.16" y2="66.48" xlink:href="#New_Gradient_Swatch_copy_29"/>
    <linearGradient id="New_Gradient_Swatch_copy_29-31" x1="409.33" y1="52.29" x2="430.72" y2="45.88" xlink:href="#New_Gradient_Swatch_copy_29"/>
    <linearGradient id="New_Gradient_Swatch_copy_29-32" x1="380.79" y1="58.64" x2="431.79" y2="47.21" xlink:href="#New_Gradient_Swatch_copy_29"/>
    <linearGradient id="linear-gradient-9" x1="21637.77" y1="277.08" x2="21611.83" y2="291.28" gradientTransform="translate(-21566.69)" gradientUnits="userSpaceOnUse">
      <stop offset="0" stop-color="#9f79c8"/>
      <stop offset="0.14" stop-color="#a580cb"/>
      <stop offset="0.33" stop-color="#b492d3"/>
      <stop offset="0.55" stop-color="#cdb0e1"/>
      <stop offset="0.58" stop-color="#d1b4e3"/>
      <stop offset="0.76" stop-color="#dbc4e9"/>
      <stop offset="1" stop-color="#ebdef3"/>
    </linearGradient>
    <linearGradient id="linear-gradient-10" x1="21635.27" y1="289.55" x2="21624.89" y2="273.04" gradientTransform="translate(-21566.69)" gradientUnits="userSpaceOnUse">
      <stop offset="0.01" stop-color="#c1a1d5"/>
      <stop offset="0.23" stop-color="#c9abdc"/>
      <stop offset="0.36" stop-color="#d1b4e3"/>
      <stop offset="0.43" stop-color="#b395d6"/>
      <stop offset="0.49" stop-color="#9c7dcb"/>
      <stop offset="0.56" stop-color="#8e6ec5"/>
      <stop offset="0.61" stop-color="#8969c3"/>
      <stop offset="0.76" stop-color="#9471c6"/>
      <stop offset="1" stop-color="#b086cc"/>
    </linearGradient>
    <linearGradient id="linear-gradient-11" x1="-20643.25" y1="274.58" x2="-20624.14" y2="284.48" gradientTransform="matrix(-1, 0, 0, 1, -20564.6, 0)" gradientUnits="userSpaceOnUse">
      <stop offset="0" stop-color="#8770b8"/>
      <stop offset="1" stop-color="#fff"/>
    </linearGradient>
    <linearGradient id="linear-gradient-12" x1="-20628.47" y1="275.45" x2="-20633.01" y2="284.65" gradientTransform="matrix(-1, 0, 0, 1, -20564.6, 0)" xlink:href="#linear-gradient-10"/>
    <radialGradient id="radial-gradient" cx="-20630.64" cy="279.54" r="2.42" gradientTransform="matrix(-1, 0, 0, 1, -20564.6, 0)" gradientUnits="userSpaceOnUse">
      <stop offset="0" stop-color="#eeebf2"/>
      <stop offset="0.58" stop-color="#d4d1d8"/>
      <stop offset="0.94" stop-color="#a5a6b9"/>
      <stop offset="1" stop-color="#9d9eb3"/>
    </radialGradient>
    <linearGradient id="linear-gradient-13" x1="21661.84" y1="291.26" x2="21635.9" y2="305.46" xlink:href="#linear-gradient-9"/>
    <linearGradient id="linear-gradient-14" x1="21659.33" y1="303.73" x2="21648.96" y2="287.22" xlink:href="#linear-gradient-10"/>
    <linearGradient id="linear-gradient-15" x1="-20667.31" y1="288.76" x2="-20648.21" y2="298.67" xlink:href="#linear-gradient-11"/>
    <linearGradient id="linear-gradient-16" x1="-20652.54" y1="289.63" x2="-20657.08" y2="298.83" gradientTransform="matrix(-1, 0, 0, 1, -20564.6, 0)" xlink:href="#linear-gradient-10"/>
    <radialGradient id="radial-gradient-2" cx="-20655.02" cy="293.74" r="2.42" xlink:href="#radial-gradient"/>
    <linearGradient id="linear-gradient-17" x1="-20666.87" y1="235.03" x2="-20705.69" y2="309.02" gradientTransform="matrix(-1, 0, 0, 1, -20564.6, 0)" gradientUnits="userSpaceOnUse">
      <stop offset="0.02" stop-color="#744ca1"/>
      <stop offset="0.53" stop-color="#9f79c8"/>
      <stop offset="0.64" stop-color="#a580cb"/>
      <stop offset="0.8" stop-color="#b492d3"/>
      <stop offset="0.98" stop-color="#cdb0e1"/>
      <stop offset="1" stop-color="#d1b4e3"/>
    </linearGradient>
    <radialGradient id="radial-gradient-3" cx="-20725.59" cy="334.81" r="2.42" xlink:href="#radial-gradient"/>
    <linearGradient id="linear-gradient-18" x1="-20806.37" y1="361.91" x2="-20787.27" y2="353.34" xlink:href="#linear-gradient-11"/>
    <radialGradient id="radial-gradient-4" cx="-20798.05" cy="376.72" r="2.42" xlink:href="#radial-gradient"/>
    <radialGradient id="radial-gradient-5" cx="-20867.2" cy="358.14" r="0.88" gradientTransform="matrix(-1, 0, 0, 1, -20564.6, 0)" gradientUnits="userSpaceOnUse">
      <stop offset="0" stop-color="#9f19ab"/>
      <stop offset="0.01" stop-color="#9c19a8"/>
      <stop offset="0.13" stop-color="#73127c"/>
      <stop offset="0.25" stop-color="#500d56"/>
      <stop offset="0.38" stop-color="#330836"/>
      <stop offset="0.52" stop-color="#1c041e"/>
      <stop offset="0.66" stop-color="#0c020d"/>
      <stop offset="0.81" stop-color="#030003"/>
      <stop offset="1"/>
    </radialGradient>
    <radialGradient id="radial-gradient-6" cx="-20841.33" cy="373.02" r="22.66" xlink:href="#radial-gradient-5"/>
    <radialGradient id="radial-gradient-7" cx="-40261.95" cy="-17935.02" r="18.98" gradientTransform="matrix(-0.09, -0.18, -0.88, 0.47, -19333.11, 1680.86)" xlink:href="#radial-gradient-5"/>
  </defs>
  <g style="isolation: isolate">
    <g id="Layer_2" data-name="Layer 2">
      <g id="Layer_1-2" data-name="Layer 1">
        <g>
          <g id="tablet">
            <path d="M825.46,438H803.64L338.57,169.5c-13.18-7.61-33.3-8.44-44.72-1.85L25.4,322.64H0v21.74H.12c.15,5,3.73,10.22,10.79,14.3l476,274.8c13.18,7.61,33.3,8.45,44.72,1.86L817.76,470.13c5.34-3.08,7.75-7.27,7.58-11.63h.12Z"/>
            <path d="M817.76,450,531.61,615.2c-11.42,6.59-31.54,5.76-44.72-1.85l-476-274.81c-13.18-7.61-14.62-19.23-3.21-25.82L293.85,147.51c11.42-6.58,31.54-5.75,44.72,1.86l476,274.8C827.73,431.78,829.17,443.4,817.76,450Z" style="fill: #ccc"/>
            <path d="M808.4,450.52,532.46,608.89c-11.1,6.41-30.68,5.6-43.51-1.81L22,339c-12.82-7.4-14.23-18.71-3.12-25.12L294.77,155.51c11.11-6.41,30.69-5.6,43.52,1.8l467,268.09C818.1,432.81,819.51,444.11,808.4,450.52Z" style="fill: #c1272d"/>
            <polygon points="777.1 430.7 739.87 452.19 708.28 470.42 680.63 486.39 606.06 529.45 580.53 544.19 564.65 553.35 498.18 591.72 461.73 570.68 416.85 544.76 364.53 514.56 205.28 422.61 138.82 384.24 122.77 374.98 48.37 332.02 98.63 303 98.65 303 136.98 280.86 327.28 170.99 402.58 214.47 418.64 223.74 554.66 302.27 570.73 311.55 695.86 383.79 712.16 393.2 777.1 430.7" style="fill: #fff"/>
            <path d="M177.23,239.14c3.45,2,3.82,5,.84,6.74s-8.21,1.5-11.66-.49-3.83-5-.84-6.73S173.78,237.15,177.23,239.14Z" style="fill: #3b2b5a"/>
            <path d="M676.07,508.48c6,3.54,1.12,12-10.81,18.88s-26.43,9.6-32.39,6.06-1.13-12,10.8-18.89S670.1,504.93,676.07,508.48Z" style="fill: #611417"/>
            <path d="M671.78,511c4.09,2.36-.35,8.75-9.91,14.27s-20.63,8.08-24.71,5.72.35-8.75,9.91-14.27S667.69,508.59,671.78,511Z" style="fill: #fff"/>
            <path d="M123.16,418.31,95.58,402.38c-1.91-1.1-3.47-4.08-3.47-6.62h0c0-2.53,1.56-3.71,3.47-2.61l27.58,15.92c1.91,1.1,3.46,4.08,3.46,6.62h0C126.62,418.23,125.07,419.41,123.16,418.31Z" style="fill: #3b2b5a"/>
            <path d="M573.12,602c0,3.16-1.92,6.83-4.3,8.2s-4.29-.08-4.29-3.25,1.92-6.83,4.29-8.2S573.12,598.86,573.12,602Z" style="fill: #c1272d"/>
            <polygon points="680.63 486.39 606.06 529.45 580.41 528.04 564.44 527.18 493.86 523.33 478.2 520.69 440.17 514.3 438.54 514.03 381.45 516.84 364.53 514.56 205.28 422.61 332 429.83 383.06 449.65 442.57 465.03 480.44 474.82 529.76 487.56 564.13 487.3 580.09 487.17 680.63 486.39" style="fill: url(#linear-gradient)"/>
            <path d="M739.87,452.19l-66-38.22,38.34-20.77-16.3-9.41-38.32,20.75L533.68,332.85l37.05-21.3-16.06-9.27-37,21.29L381.73,244.91l36.91-21.17-16.06-9.27L211.1,324.31l-38.48,22.06L122.77,375l16,9.26,49.74-28.53L227,333.65h0l138.62-79.52L501.6,332.81l-64.17,36.91-23,13.22,7.92,13.94L452.6,379.5l65-37.41L641,413.49l-69.94,37.84-95.82-57.54-.14.24-8,13.55,16.19,9.72L564,465.79l.16,21.51.31,39.88.21,26.17,15.88-9.16L580.41,528l-.32-40.87L580,469.31l128.33,1.11Zm-82.59-29.27,54.38,31.47-110.76-1Z" style="fill: gray"/>
            <path d="M483.55,411l-.3,6.33-2.81,57.52-2.24,45.87-1,21.2a19.4,19.4,0,0,1-5.78,12.87l-9.66,15.92-44.89-25.92,22.45-12.36.88-18.09,2.4-49.28,2.19-44.8L366,369.43,302.1,410.24a19.09,19.09,0,0,1-19.92.36l-93.62-54.89-15.94-9.34L98.65,303,137,280.86l74.12,43.45L227,333.65h0l64.39,37.75,64.35-41.1a19.06,19.06,0,0,1,20.59,0l61.06,39.38,15.17,9.78,22.15,14.29a3.53,3.53,0,0,1,.34.24A19.27,19.27,0,0,1,483.55,411Z" style="fill: #666"/>
            <path d="M436.93,556.36l11.65-8.63a18.39,18.39,0,0,0,7.4-13.85l3.3-68,2.66-54.44L366,349.55l-72.93,46.59a2.34,2.34,0,0,1-1.25.36,2.37,2.37,0,0,1-1.21-.33L115.46,293.27l5-2.89,82.17,48.36,19.84,11.64h0L291.81,391l73-46.61a2.29,2.29,0,0,1,2.51,0l61.06,39.37,15.17,9.78,21.82,14.08.38.26a2.56,2.56,0,0,1,1.11,2.24L463.73,474l-3.28,67.07a2.59,2.59,0,0,1-.77,1.73l-13.26,19Z" style="fill: #f2f2f2"/>
          </g>
          <g id="buildings">
            <g>
              <g>
                <polygon points="338.47 69.83 338.47 235.27 387.91 206.85 387.91 41.41 338.47 69.83" style="fill: url(#New_Gradient_Swatch_copy_29)"/>
                <polygon points="338.5 69.83 338.5 235.27 289.76 206.86 289.76 41.44 338.5 69.83" style="fill: url(#New_Gradient_Swatch_copy_29-2)"/>
                <g>
                  <polygon points="304.66 56.77 299.34 53.67 299.34 206.53 304.66 209.63 304.66 56.77" style="fill: url(#New_Gradient_Swatch_copy_31)"/>
                  <polygon points="316.14 63.52 310.82 60.42 310.82 213.27 316.14 216.37 316.14 63.52" style="fill: url(#New_Gradient_Swatch_copy_31-2)"/>
                  <polygon points="327.62 70.26 322.3 67.16 322.3 220.01 327.62 223.12 327.62 70.26" style="fill: url(#New_Gradient_Swatch_copy_31-3)"/>
                </g>
                <g>
                  <polygon points="372.39 56.86 377.71 53.76 377.71 206.61 372.39 209.72 372.39 56.86" style="fill: url(#New_Gradient_Swatch_copy_31-4)"/>
                  <polygon points="361.07 63.52 366.4 60.42 366.4 213.27 361.07 216.37 361.07 63.52" style="fill: url(#New_Gradient_Swatch_copy_31-5)"/>
                  <polygon points="349.76 70.17 355.08 67.07 355.08 219.93 349.76 223.03 349.76 70.17" style="fill: url(#New_Gradient_Swatch_copy_31-6)"/>
                </g>
                <polygon points="289.76 41.44 338.5 69.83 387.91 41.41 339.11 12.99 289.76 41.44" style="fill: url(#New_Gradient_Swatch_copy_29-3)"/>
              </g>
              <g>
                <polygon points="338.61 38.31 338.61 60.62 369.41 42.91 369.41 20.6 338.61 38.31" style="fill: url(#New_Gradient_Swatch_copy_29-4)"/>
                <polygon points="338.63 38.31 338.63 60.62 308.25 42.91 308.25 20.63 338.63 38.31" style="fill: url(#New_Gradient_Swatch_copy_29-5)"/>
                <g>
                  <polygon points="316.83 29.78 312.65 27.31 312.65 41.77 316.83 44.24 316.83 29.78" style="fill: url(#New_Gradient_Swatch_copy_32)"/>
                  <polygon points="325.13 34.64 321 32.22 321 46.68 325.13 49.1 325.13 34.64" style="fill: url(#New_Gradient_Swatch_copy_32-2)"/>
                  <polygon points="333.44 39.5 329.35 37.13 329.35 51.59 333.44 53.97 333.44 39.5" style="fill: url(#New_Gradient_Swatch_copy_32-3)"/>
                </g>
                <g>
                  <polygon points="360.66 29.55 364.69 27.31 364.69 41.77 360.66 44.01 360.66 29.55" style="fill: url(#New_Gradient_Swatch_copy_32-4)"/>
                  <polygon points="352.28 34.52 356.37 32.22 356.37 46.68 352.28 48.99 352.28 34.52" style="fill: url(#New_Gradient_Swatch_copy_32-5)"/>
                  <polygon points="343.9 39.5 348.05 37.13 348.05 51.59 343.9 53.97 343.9 39.5" style="fill: url(#New_Gradient_Swatch_copy_32-6)"/>
                </g>
                <polygon points="308.25 20.63 338.63 38.31 369.41 20.6 339.01 2.89 308.25 20.63" style="fill: url(#New_Gradient_Swatch_copy_29-6)"/>
              </g>
              <g>
                <polygon points="338.72 18.33 338.72 30.05 354.66 20.88 354.66 9.16 338.72 18.33" style="fill: url(#New_Gradient_Swatch_copy_29-7)"/>
                <polygon points="338.73 18.33 338.73 30.05 323 20.88 323 9.18 338.73 18.33" style="fill: url(#New_Gradient_Swatch_copy_29-8)"/>
                <polygon points="338.72 18.33 338.72 19.58 354.66 10.41 354.66 9.16 338.72 18.33" style="fill: url(#New_Gradient_Swatch_copy_30)"/>
                <polygon points="338.73 18.33 338.73 19.58 323 10.41 323 9.18 338.73 18.33" style="fill: url(#New_Gradient_Swatch_copy_30-2)"/>
                <polygon points="323 9.18 338.73 18.33 354.66 9.16 338.92 0 323 9.18" style="fill: url(#New_Gradient_Swatch_copy_29-9)"/>
              </g>
              <polygon points="289.76 206.86 320.53 224.79 320.53 93.34 289.76 75.42 289.76 206.86" style="mix-blend-mode: multiply"/>
            </g>
            <g>
              <g>
                <polygon points="267.58 266.03 267.58 275.91 324.71 243.06 324.71 233.18 267.58 266.03" style="fill: url(#New_Gradient_Swatch_copy_29-10)"/>
                <polygon points="267.61 266.03 267.61 275.91 211.29 243.07 211.29 233.23 267.61 266.03" style="fill: url(#New_Gradient_Swatch_copy_29-11)"/>
                <polygon points="211.29 233.23 267.61 266.03 324.71 233.18 268.32 200.34 211.29 233.23" style="fill: url(#New_Gradient_Swatch_copy_29-12)"/>
              </g>
              <g>
                <polygon points="267.64 106.6 267.64 261.52 317.07 233.1 317.07 78.18 267.64 106.6" style="fill: url(#New_Gradient_Swatch_copy_29-13)"/>
                <polygon points="267.67 106.6 267.67 261.52 218.92 233.1 218.92 78.22 267.67 106.6" style="fill: url(#New_Gradient_Swatch_copy_29-14)"/>
                <g>
                  <polygon points="263.43 109.4 223.24 86 223.24 91.62 263.43 115.02 263.43 109.4" style="fill: url(#New_Gradient_Swatch_copy_31-7)"/>
                  <polygon points="263.43 120.8 223.24 97.39 223.24 103.01 263.43 126.42 263.43 120.8" style="fill: url(#New_Gradient_Swatch_copy_31-8)"/>
                  <polygon points="263.43 132.2 223.24 108.79 223.24 114.41 263.43 137.81 263.43 132.2" style="fill: url(#New_Gradient_Swatch_copy_31-9)"/>
                  <polygon points="263.43 143.59 223.24 120.19 223.24 125.81 263.43 149.21 263.43 143.59" style="fill: url(#New_Gradient_Swatch_copy_31-10)"/>
                  <polygon points="263.43 154.99 223.24 131.59 223.24 137.21 263.43 160.61 263.43 154.99" style="fill: url(#New_Gradient_Swatch_copy_31-11)"/>
                  <polygon points="263.43 166.39 223.24 142.99 223.24 148.6 263.43 172.01 263.43 166.39" style="fill: url(#New_Gradient_Swatch_copy_31-12)"/>
                  <polygon points="263.43 177.79 223.24 154.38 223.24 160 263.43 183.41 263.43 177.79" style="fill: url(#New_Gradient_Swatch_copy_31-12)"/>
                  <polygon points="263.43 189.19 223.24 165.78 223.24 171.4 263.43 194.8 263.43 189.19" style="fill: url(#New_Gradient_Swatch_copy_31-12)"/>
                  <polygon points="263.43 200.58 223.24 177.18 223.24 182.8 263.43 206.2 263.43 200.58" style="fill: url(#New_Gradient_Swatch_copy_31-15)"/>
                  <polygon points="263.43 211.98 223.24 188.58 223.24 194.19 263.43 217.6 263.43 211.98" style="fill: url(#New_Gradient_Swatch_copy_31-15)"/>
                  <polygon points="263.43 223.38 223.24 199.97 223.24 205.59 263.43 229 263.43 223.38" style="fill: url(#New_Gradient_Swatch_copy_31-17)"/>
                  <polygon points="263.43 234.78 223.24 211.37 223.24 216.99 263.43 240.39 263.43 234.78" style="fill: url(#New_Gradient_Swatch_copy_31-18)"/>
                  <polygon points="263.43 246.17 223.24 222.77 223.24 228.39 263.43 251.79 263.43 246.17" style="fill: url(#New_Gradient_Swatch_copy_31-19)"/>
                </g>
                <g>
                  <polygon points="272.63 109.4 312.82 86 312.82 91.62 272.63 115.02 272.63 109.4" style="fill: url(#New_Gradient_Swatch_copy_31-20)"/>
                  <polygon points="272.63 120.8 312.82 97.39 312.82 103.01 272.63 126.42 272.63 120.8" style="fill: url(#New_Gradient_Swatch_copy_31-21)"/>
                  <polygon points="272.63 132.2 312.82 108.79 312.82 114.41 272.63 137.81 272.63 132.2" style="fill: url(#New_Gradient_Swatch_copy_31-22)"/>
                  <polygon points="272.63 143.59 312.82 120.19 312.82 125.81 272.63 149.21 272.63 143.59" style="fill: url(#New_Gradient_Swatch_copy_31-23)"/>
                  <polygon points="272.63 154.99 312.82 131.59 312.82 137.21 272.63 160.61 272.63 154.99" style="fill: url(#New_Gradient_Swatch_copy_31-24)"/>
                  <polygon points="272.63 166.39 312.82 142.99 312.82 148.6 272.63 172.01 272.63 166.39" style="fill: url(#New_Gradient_Swatch_copy_31-24)"/>
                  <polygon points="272.63 177.79 312.82 154.38 312.82 160 272.63 183.41 272.63 177.79" style="fill: url(#New_Gradient_Swatch_copy_31-24)"/>
                  <polygon points="272.63 189.19 312.82 165.78 312.82 171.4 272.63 194.8 272.63 189.19" style="fill: url(#New_Gradient_Swatch_copy_31-27)"/>
                  <polygon points="272.63 200.58 312.82 177.18 312.82 182.8 272.63 206.2 272.63 200.58" style="fill: url(#New_Gradient_Swatch_copy_31-27)"/>
                  <polygon points="272.63 211.98 312.82 188.58 312.82 194.19 272.63 217.6 272.63 211.98" style="fill: url(#New_Gradient_Swatch_copy_31-29)"/>
                  <polygon points="272.63 223.38 312.82 199.97 312.82 205.59 272.63 229 272.63 223.38" style="fill: url(#New_Gradient_Swatch_copy_31-30)"/>
                  <polygon points="272.63 234.78 312.82 211.37 312.82 216.99 272.63 240.39 272.63 234.78" style="fill: url(#New_Gradient_Swatch_copy_31-31)"/>
                  <polygon points="272.63 246.17 312.82 222.77 312.82 228.39 272.63 251.79 272.63 246.17" style="fill: url(#New_Gradient_Swatch_copy_31-32)"/>
                </g>
                <polygon points="218.92 78.22 267.67 106.6 317.07 78.18 268.27 49.77 218.92 78.22" style="fill: url(#New_Gradient_Swatch_copy_29-15)"/>
                <polygon points="267.67 106.6 267.67 261.52 218.92 233.1 218.92 78.22 267.67 106.6" style="mix-blend-mode: color-dodge;fill: url(#linear-gradient-2)"/>
              </g>
              <g>
                <polygon points="302.74 78.07 268.23 57.97 233.25 78.1 267.8 98.21 302.74 78.07" style="fill: url(#New_Gradient_Swatch_copy_29-16)"/>
                <polygon points="268.25 63.91 268.25 57.98 268.23 57.97 233.25 78.1 238.39 81.08 268.25 63.91" style="fill: url(#New_Gradient_Swatch_copy_29-17)"/>
                <polygon points="268.23 63.91 297.62 81.02 302.74 78.07 268.23 57.97 268.23 63.91" style="fill: url(#New_Gradient_Swatch_copy_29-18)"/>
              </g>
            </g>
            <g>
              <g>
                <polygon points="410.11 109.33 410.11 274.78 459.54 246.35 459.54 80.91 410.11 109.33" style="fill: url(#New_Gradient_Swatch_copy_29-19)"/>
                <polygon points="410.13 109.33 410.13 274.78 361.39 246.36 361.39 80.95 410.13 109.33" style="fill: url(#New_Gradient_Swatch_copy_29-20)"/>
                <g>
                  <path d="M400.53,109.29v5.49l4.76,2.92v-5.5Zm-8.67.49,4.76,2.92v-5.49l-4.76-2.92Zm-26-15,4.76,2.92V92.22l-4.76-2.92Zm8.67,5,4.76,2.92v-5.5l-4.76-2.91Zm8.67,5L388,107.7v-5.49l-4.76-2.91Z" style="fill: url(#New_Gradient_Swatch_copy_31-33)"/>
                  <path d="M400.53,120.93v5.49l4.76,2.92v-5.49Zm-8.67.49,4.76,2.92v-5.49l-4.76-2.91Zm-26-15,4.76,2.92v-5.49L365.85,101Zm8.67,5,4.76,2.92v-5.49l-4.76-2.92Zm8.67,5,4.76,2.92v-5.5l-4.76-2.91Z" style="fill: url(#New_Gradient_Swatch_copy_31-33)"/>
                  <path d="M400.53,132.58v5.48l4.76,2.92v-5.49Zm-8.67.49,4.76,2.92v-5.5l-4.76-2.91Zm-26-15,4.76,2.92v-5.49l-4.76-2.92Zm8.67,5,4.76,2.92V120.5l-4.76-2.91Zm8.67,5L388,131V125.5l-4.76-2.92Z" style="fill: url(#New_Gradient_Swatch_copy_31-35)"/>
                  <path d="M400.53,144.22v5.49l4.76,2.92v-5.49Zm-8.67.49,4.76,2.92v-5.49l-4.76-2.92Zm-26-15,4.76,2.92v-5.49l-4.76-2.92Zm8.67,5,4.76,2.92v-5.49l-4.76-2.92Zm8.67,5,4.76,2.92v-5.49l-4.76-2.91Z" style="fill: url(#New_Gradient_Swatch_copy_31-35)"/>
                  <path d="M400.53,155.86v5.49l4.76,2.92v-5.49Zm-8.67.49,4.76,2.92v-5.49l-4.76-2.91Zm-26-15,4.76,2.92v-5.49l-4.76-2.91Zm8.67,5,4.76,2.92v-5.49l-4.76-2.92Zm8.67,5,4.76,2.92v-5.49l-4.76-2.92Z" style="fill: url(#New_Gradient_Swatch_copy_31-35)"/>
                  <path d="M400.53,167.51V173l4.76,2.92v-5.49Zm-8.67.49,4.76,2.92v-5.49l-4.76-2.92Zm-26-15,4.76,2.92v-5.49l-4.76-2.92Zm8.67,5,4.76,2.92v-5.49l-4.76-2.91Zm8.67,5,4.76,2.92v-5.49l-4.76-2.92Z" style="fill: url(#New_Gradient_Swatch_copy_31-35)"/>
                  <path d="M400.53,179.15v5.49l4.76,2.92v-5.49Zm-8.67.49,4.76,2.92v-5.49l-4.76-2.92Zm-26-15,4.76,2.92v-5.49l-4.76-2.92Zm8.67,5,4.76,2.92v-5.49l-4.76-2.92Zm8.67,5,4.76,2.92v-5.49l-4.76-2.91Z" style="fill: url(#New_Gradient_Swatch_copy_31-35)"/>
                  <path d="M400.53,190.79v5.49l4.76,2.92v-5.49Zm-8.67.49,4.76,2.92v-5.49l-4.76-2.91Zm-26-15,4.76,2.93v-5.5l-4.76-2.91Zm8.67,5,4.76,2.92v-5.49l-4.76-2.92Zm8.67,5,4.76,2.92v-5.49l-4.76-2.92Z" style="fill: url(#New_Gradient_Swatch_copy_31-35)"/>
                  <path d="M400.53,202.44v5.48l4.76,2.93v-5.5Zm-8.67.49,4.76,2.92v-5.49l-4.76-2.92Zm-26-15,4.76,2.92v-5.49l-4.76-2.92Zm8.67,5,4.76,2.92v-5.5l-4.76-2.91Zm8.67,5,4.76,2.92v-5.49l-4.76-2.91Z" style="fill: url(#New_Gradient_Swatch_copy_31-41)"/>
                  <path d="M400.53,214.08v5.49l4.76,2.92V217Zm-8.67.49,4.76,2.92V212l-4.76-2.91Zm-26-15,4.76,2.92V197l-4.76-2.91Zm8.67,5,4.76,2.92V202l-4.76-2.92Zm8.67,5L388,212.5V207l-4.76-2.91Z" style="fill: url(#New_Gradient_Swatch_copy_31-41)"/>
                  <path d="M400.53,225.73v5.48l4.76,2.92v-5.49Zm-8.67.49,4.76,2.92v-5.5l-4.76-2.91Zm-26-15,4.76,2.92v-5.49l-4.76-2.92Zm8.67,5,4.76,2.92v-5.49l-4.76-2.91Zm8.67,5,4.76,2.92v-5.49l-4.76-2.92Z" style="fill: url(#New_Gradient_Swatch_copy_31-41)"/>
                  <path d="M400.53,237.37v5.49l4.76,2.92v-5.49Zm-8.67.49,4.76,2.92v-5.49l-4.76-2.92Zm-26-15,4.76,2.92V220.3l-4.76-2.92Zm8.67,5,4.76,2.92V225.3l-4.76-2.92Zm8.67,5,4.76,2.92v-5.49l-4.76-2.91Z" style="fill: url(#New_Gradient_Swatch_copy_31-41)"/>
                  <path d="M400.53,249v5.49l4.76,2.92v-5.49Zm-8.67.49,4.76,2.92v-5.49L391.86,244Zm-26-15,4.76,2.92v-5.49L365.85,229Zm8.67,5,4.76,2.92v-5.49L374.52,234Zm8.67,5,4.76,2.92v-5.49L383.19,239Z" style="fill: url(#New_Gradient_Swatch_copy_31-41)"/>
                </g>
                <g>
                  <path d="M454.84,89.3l-4.75,2.92v5.49l4.75-2.92Zm-8.67,5-4.75,2.91v5.5l4.75-2.92Zm-8.67,5-4.75,2.91v5.49l4.75-2.92Zm-22.09,12.9v5.5l4.75-2.92v-5.49Zm13.42-7.91-4.75,2.92v5.49l4.75-2.92Z" style="fill: url(#New_Gradient_Swatch_copy_31-46)"/>
                  <path d="M454.84,101l-4.75,2.91v5.49l4.75-2.92Zm-8.67,5-4.75,2.92v5.49l4.75-2.92Zm-8.67,5-4.75,2.91v5.5l4.75-2.92Zm-22.09,12.91v5.49l4.75-2.92v-5.49Zm13.42-7.91-4.75,2.91v5.49l4.75-2.92Z" style="fill: url(#New_Gradient_Swatch_copy_31-47)"/>
                  <path d="M454.84,112.59l-4.75,2.92V121l4.75-2.92Zm-8.67,5-4.75,2.91V126l4.75-2.92Zm-8.67,5-4.75,2.92V131l4.75-2.92Zm-22.09,12.91V141l4.75-2.92v-5.48Zm13.42-7.91-4.75,2.91V136l4.75-2.92Z" style="fill: url(#New_Gradient_Swatch_copy_31-48)"/>
                  <path d="M454.84,124.23l-4.75,2.92v5.49l4.75-2.92Zm-8.67,5-4.75,2.92v5.49l4.75-2.92Zm-8.67,5-4.75,2.91v5.49l4.75-2.92Zm-22.09,12.91v5.49l4.75-2.92v-5.49Zm13.42-7.92-4.75,2.92v5.49l4.75-2.92Z" style="fill: url(#New_Gradient_Swatch_copy_31-49)"/>
                  <path d="M454.84,135.88l-4.75,2.91v5.49l4.75-2.92Zm-8.67,5-4.75,2.92v5.49l4.75-2.92Zm-8.67,5-4.75,2.92v5.49l4.75-2.92Zm-22.09,12.91v5.49l4.75-2.92v-5.49Zm13.42-7.91-4.75,2.91v5.49l4.75-2.92Z" style="fill: url(#New_Gradient_Swatch_copy_31-50)"/>
                  <path d="M454.84,147.52l-4.75,2.92v5.49l4.75-2.92Zm-8.67,5-4.75,2.91v5.49l4.75-2.92Zm-8.67,5-4.75,2.92v5.49L437.5,163Zm-22.09,12.91v5.49l4.75-2.92v-5.48Zm13.42-7.91-4.75,2.92v5.49l4.75-2.92Z" style="fill: url(#New_Gradient_Swatch_copy_31-51)"/>
                  <path d="M454.84,159.16l-4.75,2.92v5.49l4.75-2.92Zm-8.67,5-4.75,2.92v5.49l4.75-2.92Zm-8.67,5-4.75,2.91v5.49l4.75-2.92Zm-22.09,12.91v5.49l4.75-2.92v-5.49Zm13.42-7.92-4.75,2.92v5.49l4.75-2.92Z" style="fill: url(#New_Gradient_Swatch_copy_31-52)"/>
                  <path d="M454.84,170.81l-4.75,2.91v5.5l4.75-2.93Zm-8.67,5-4.75,2.92v5.49l4.75-2.92Zm-8.67,5-4.75,2.92v5.49l4.75-2.92Zm-22.09,12.91v5.49l4.75-2.92v-5.49Zm13.42-7.91-4.75,2.91v5.49l4.75-2.92Z" style="fill: url(#New_Gradient_Swatch_copy_31-53)"/>
                  <path d="M454.84,182.45l-4.75,2.92v5.49l4.75-2.92Zm-8.67,5-4.75,2.91v5.5l4.75-2.92Zm-8.67,5-4.75,2.91v5.49l4.75-2.92Zm-22.09,12.9v5.5l4.75-2.93v-5.48Zm13.42-7.91-4.75,2.92v5.49l4.75-2.92Z" style="fill: url(#New_Gradient_Swatch_copy_31-54)"/>
                  <path d="M454.84,194.1,450.09,197v5.49l4.75-2.92Zm-8.67,5L441.42,202v5.49l4.75-2.92Zm-8.67,5L432.75,207v5.5l4.75-2.92ZM415.41,217v5.49l4.75-2.92v-5.49Zm13.42-7.91L424.08,212v5.49l4.75-2.92Z" style="fill: url(#New_Gradient_Swatch_copy_31-55)"/>
                  <path d="M454.84,205.74l-4.75,2.92v5.49l4.75-2.92Zm-8.67,5-4.75,2.91v5.49l4.75-2.92Zm-8.67,5-4.75,2.92v5.49l4.75-2.92Zm-22.09,12.91v5.49l4.75-2.92v-5.48Zm13.42-7.91-4.75,2.91v5.5l4.75-2.92Z" style="fill: url(#New_Gradient_Swatch_copy_31-56)"/>
                  <path d="M454.84,217.38l-4.75,2.92v5.49l4.75-2.92Zm-8.67,5-4.75,2.92v5.49l4.75-2.92Zm-8.67,5-4.75,2.91v5.49l4.75-2.92Zm-22.09,12.91v5.49l4.75-2.92v-5.49Zm13.42-7.92-4.75,2.92v5.49l4.75-2.92Z" style="fill: url(#New_Gradient_Swatch_copy_31-57)"/>
                  <path d="M454.84,229l-4.75,2.91v5.49l4.75-2.92Zm-8.67,5-4.75,2.92v5.49l4.75-2.92Zm-8.67,5-4.75,2.92v5.49l4.75-2.92Zm-22.09,12.91v5.49l4.75-2.92V249ZM428.83,244l-4.75,2.91v5.49l4.75-2.92Z" style="fill: url(#New_Gradient_Swatch_copy_31-58)"/>
                </g>
                <polygon points="361.39 80.95 410.13 109.33 459.54 80.91 410.74 52.49 361.39 80.95" style="fill: url(#New_Gradient_Swatch_copy_29-21)"/>
                <polygon points="410.13 109.33 410.13 274.78 361.39 246.36 361.39 80.95 410.13 109.33" style="mix-blend-mode: color-dodge;fill: url(#linear-gradient-3)"/>
              </g>
              <g>
                <polygon points="386.85 253.54 386.85 288.21 410.11 274.78 410.11 240.11 386.85 253.54" style="fill: url(#New_Gradient_Swatch_copy_29-22)"/>
                <polygon points="386.88 253.54 386.88 288.21 338.13 259.79 338.13 225.16 386.88 253.54" style="fill: url(#New_Gradient_Swatch_copy_29-23)"/>
                <polygon points="386.85 257.94 386.85 261.89 410.11 248.46 410.11 244.51 386.85 257.94" style="fill: url(#linear-gradient-4)"/>
                <polygon points="386.88 257.94 386.88 261.89 338.13 233.47 338.13 229.56 386.88 257.94" style="fill: url(#linear-gradient-5)"/>
                <polygon points="338.13 225.16 386.88 253.54 410.11 240.11 361.31 211.7 338.13 225.16" style="fill: url(#New_Gradient_Swatch_copy_29-24)"/>
                <path d="M377.28,262.44v19.79l4.75,2.92V265.36Zm-34.68-.2,4.75,2.92V245.37l-4.75-2.91Zm8.67,5,4.75,2.92V250.37l-4.75-2.92Zm8.67,5,4.75,2.92V255.37l-4.75-2.92Zm8.67,5,4.75,2.92V260.36l-4.75-2.91Z" style="fill: url(#New_Gradient_Swatch_copy_31-59)"/>
                <path d="M392.15,265.36v19.79l4.75-2.92V262.44Zm13.26-7.91-4.76,2.92v19.78l4.76-2.92Z" style="fill: url(#New_Gradient_Swatch_copy_31-60)"/>
                <polygon points="386.88 253.54 386.88 288.21 338.13 259.79 338.13 225.16 386.88 253.54" style="mix-blend-mode: color-dodge;fill: url(#linear-gradient-6)"/>
              </g>
              <g>
                <polygon points="410.24 96.09 410.24 102.76 448.79 80.6 448.79 73.93 410.24 96.09" style="fill: url(#New_Gradient_Swatch_copy_29-25)"/>
                <polygon points="410.26 96.09 410.26 102.76 372.26 80.6 372.26 73.96 410.26 96.09" style="fill: url(#New_Gradient_Swatch_copy_29-26)"/>
                <polygon points="410.24 96.09 410.24 97.74 448.79 75.58 448.79 73.93 410.24 96.09" style="fill: url(#New_Gradient_Swatch_copy_30-3)"/>
                <polygon points="410.26 96.09 410.26 97.74 372.26 75.59 372.26 73.96 410.26 96.09" style="fill: url(#New_Gradient_Swatch_copy_30-4)"/>
                <polygon points="372.26 73.96 410.26 96.09 448.79 73.93 410.74 51.77 372.26 73.96" style="fill: url(#New_Gradient_Swatch_copy_29-27)"/>
              </g>
              <g>
                <polygon points="410.55 74.74 410.55 87.06 429.98 75.88 429.98 63.57 410.55 74.74" style="fill: url(#New_Gradient_Swatch_copy_29-28)"/>
                <polygon points="410.56 74.74 410.56 87.06 391.4 75.89 391.4 63.58 410.56 74.74" style="fill: url(#New_Gradient_Swatch_copy_29-29)"/>
                <polygon points="410.55 76.28 410.55 80.89 429.98 69.72 429.98 65.11 410.55 76.28" style="fill: url(#linear-gradient-7)"/>
                <polygon points="410.56 76.28 410.56 80.89 391.4 69.73 391.4 65.13 410.56 76.28" style="fill: url(#linear-gradient-8)"/>
                <polygon points="391.4 63.58 410.56 74.74 429.98 63.57 410.8 52.4 391.4 63.58" style="fill: url(#New_Gradient_Swatch_copy_29-30)"/>
              </g>
              <g>
                <polygon points="409.96 35.43 409.96 68.77 420.32 62.81 409.96 35.43" style="fill: url(#New_Gradient_Swatch_copy_29-31)"/>
                <polygon points="409.96 35.43 409.96 68.77 399.75 62.81 409.96 35.43" style="fill: url(#New_Gradient_Swatch_copy_29-32)"/>
              </g>
            </g>
          </g>
          <g id="location">
            <path d="M460.63,143.74c17.73-10.23,33.82-10.4,45.92-2.58h0l26.26,15L526.26,171l-.49-.23a97.6,97.6,0,0,1,2.88,24.36c0,3.64-.21,7.33-.52,11.05-4.07,64.4-41.57,153.4-58.84,191.42,6.2,3-2.6,25.3-2.6,25.3l-25.86-14.85s-42-49.44-47.65-123.6c-.33-3.45-.56-7-.56-10.79C392.62,223.61,423.07,165.43,460.63,143.74Z" style="fill: #611417"/>
            <path d="M554,221.06c.31-3.71.52-7.4.52-11.05,0-50.08-30.45-73.1-68-51.41s-68,79.86-68,130c0,3.77.23,7.33.57,10.79,5.69,74.15,47.64,123.59,47.64,123.59S548.69,305,554,221.06Z" style="fill: #c1272d"/>
            <path d="M535.12,218.77c0,34.39-20.91,74.34-46.71,89.23s-46.7-.92-46.7-35.31,20.91-74.34,46.7-89.23S535.12,184.38,535.12,218.77Z" style="fill: #fff"/>
            <g>
              <path d="M518.07,225.07l-7.31-19.84c-1.62-4.41-5.52-5.66-9.85-3.16l-10,5.75-5.11,3-10,5.74c-4.33,2.5-8.23,8.25-9.85,14.54l-7.39,28.56h0a18.52,18.52,0,0,0-.71,4.88v7.82c0,6,3.61,8.85,8.08,6.52v8c0,3.22,2,4.71,4.38,3.32s4.39-5.17,4.39-8.38v-8l26.85-15.5v8c0,3.21,2,4.7,4.39,3.31s4.38-5.17,4.39-8.38v-7.95l0,0c4.64-2.67,8.43-9.91,8.43-16.08v-7.82A10.42,10.42,0,0,0,518.07,225.07Z" style="fill: #c1272d"/>
              <path d="M506.22,211.82c-1-2.7-3.38-3.47-6-1.94l-14.34,8.28-2,1.17-7.2,4.16c-2.65,1.53-5,5-6,8.9l-4.25,16.43,17.48-10.09,2-1.17,24.62-14.22Z" style="fill: #fff"/>
              <path d="M469.67,265.2c0,2.68-1.63,5.79-3.64,6.95s-3.64-.07-3.64-2.75,1.63-5.79,3.64-6.95S469.67,262.52,469.67,265.2Z" style="fill: #fff"/>
              <path d="M514.07,239.56c0,2.68-1.63,5.8-3.64,7s-3.64-.07-3.64-2.75,1.63-5.8,3.64-7S514.07,236.88,514.07,239.56Z" style="fill: #fff"/>
              <polygon points="498.94 253.15 477.51 265.52 477.51 256.79 498.95 244.41 498.94 253.15" style="fill: #fff"/>
            </g>
          </g>
          <g id="truck">
            <polygon points="53.44 256.1 53.44 276.43 56.95 274.46 56.95 254.01 53.44 256.1" style="fill: #b4c4cc"/>
            <g>
              <g>
                <path d="M83.05,282.51c0,3.47-1.2,5.93-3.15,7.12l-6.21,3.6c-2,1.13-.74-1.44-3.81-3.22-6.2-3.57-11.23-12.24-11.23-19.35,0-3.52-3.25-3.55-1.26-4.72l6.6-3.65c2-1.1,4.79-.9,7.84.86C78,266.73,83.05,275.4,83.05,282.51Z" style="fill: #474756"/>
                <path d="M76.55,286.2c0,7.11-5,10-11.22,6.39s-11.22-12.24-11.22-19.35,5-10,11.22-6.4S76.55,279.08,76.55,286.2Z" style="fill: #545466"/>
                <path d="M65.24,272c-4-2.31-7.25-.46-7.25,4.13a16,16,0,0,0,7.25,12.51c4,2.31,7.25.45,7.25-4.14A16,16,0,0,0,65.24,272Z" style="fill: url(#linear-gradient-9)"/>
                <path d="M67.82,286.94a16,16,0,0,1-7.25-12.51,6.36,6.36,0,0,1,.85-3.42c-2.05.28-3.43,2.1-3.43,5.08a16,16,0,0,0,7.25,12.51c2.77,1.6,5.17,1.2,6.4-.71A6.1,6.1,0,0,1,67.82,286.94Z" style="fill: url(#linear-gradient-10)"/>
                <path d="M70.27,283.82c0,2.84-2,4-4.47,2.55a9.83,9.83,0,0,1-4.48-7.71c0-2.84,2-4,4.48-2.55A9.84,9.84,0,0,1,70.27,283.82Z" style="mix-blend-mode: multiply;fill: url(#linear-gradient-11)"/>
                <path d="M69.91,282.2c0,2.4-1.7,3.37-3.79,2.16a8.37,8.37,0,0,1-3.79-6.54c0-2.4,1.7-3.37,3.79-2.16A8.37,8.37,0,0,1,69.91,282.2Z" style="fill: url(#linear-gradient-12)"/>
                <path d="M68.88,282.91c0,2.4-1.7,3.37-3.79,2.16a8.33,8.33,0,0,1-3.79-6.53c0-2.4,1.69-3.37,3.79-2.16A8.34,8.34,0,0,1,68.88,282.91Z" style="fill: #e7f1f7"/>
                <g>
                  <path d="M82.63,282.46c0,3.5-1.21,6-3.17,7.17l-6,3.47c-2,1.14-.74-1.45-3.83-3.24-6.24-3.6-11.29-12.31-11.29-19.47,0-3.53-3.27-3.56-1.27-4.74l6.36-3.52c2-1.11,4.82-.9,7.88.87C77.58,266.6,82.63,275.31,82.63,282.46Z" style="fill: #4c4c5e"/>
                  <path d="M76.37,286c0,7.15-5.05,10-11.29,6.43S53.8,280.14,53.8,273s5.05-10,11.28-6.44S76.37,278.87,76.37,286Z" style="fill: #474756"/>
                  <path d="M73.13,284.15c0,5.09-3.61,7.15-8,4.58s-8-8.77-8-13.87,3.6-7.15,8-4.58S73.13,279.05,73.13,284.15Z" style="fill: #e7f1f7"/>
                  <path d="M73.13,284.15a6.94,6.94,0,0,1-1,3.9c-1.38,1-3.39,1-5.63-.33a16.55,16.55,0,0,1-7.51-13c0-3.43,1.76-5.39,4.3-5.3a8.36,8.36,0,0,1,1.81.81C69.52,272.84,73.13,279.05,73.13,284.15Z" style="fill: #e7f1f7"/>
                  <path d="M60.49,269.28c-1.44.84-2.32,2.61-2.32,5.14,0,5.1,3.6,11.31,8,13.87a6.49,6.49,0,0,0,4.6,1c-1.46.85-3.49.73-5.73-.56-4.44-2.56-8-8.77-8-13.87C57,271.72,58.41,269.74,60.49,269.28Z" style="fill: #474756"/>
                  <path d="M68.15,280.76c0,1.33-1,1.87-2.11,1.2a4.64,4.64,0,0,1-2.1-3.63c0-1.33.94-1.87,2.1-1.2A4.65,4.65,0,0,1,68.15,280.76Z" style="fill: url(#radial-gradient)"/>
                  <path d="M65.18,272.59a2.33,2.33,0,0,0,1,1.82c.58.33,1,.06,1-.6a2.3,2.3,0,0,0-1-1.81C65.65,271.66,65.18,271.93,65.18,272.59Zm0,12.31a2.3,2.3,0,0,0,1,1.81c.58.34,1,.07,1-.6a2.33,2.33,0,0,0-1-1.81C65.65,284,65.18,284.24,65.18,284.9Zm-2-12.51c-.41-.71-1.07-1.09-1.49-.86s-.41,1,0,1.71,1.08,1.09,1.49.86S63.59,273.1,63.18,272.39Zm6.1,13.93c.41.71,1.07,1.09,1.48.86s.41-1,0-1.71-1.07-1.09-1.48-.86S68.87,285.61,69.28,286.32Zm-9.46-10.67a2.3,2.3,0,0,0,1,1.81c.58.34,1.05.07,1.05-.6a2.33,2.33,0,0,0-1.05-1.81C60.29,274.72,59.82,275,59.82,275.65Zm10.72,6.19a2.33,2.33,0,0,0,1,1.82c.58.33,1,.06,1-.6a2.33,2.33,0,0,0-1-1.82C71,280.91,70.54,281.18,70.54,281.84Zm-8.85.1c.42.71,1.08,1.09,1.49.86s.41-1,0-1.71-1.07-1.09-1.49-.85S61.28,281.23,61.69,281.94Zm7.59-4.32c.41.7,1.07,1.09,1.48.85s.41-1,0-1.7-1.07-1.09-1.48-.86S68.87,276.91,69.28,277.62Z" style="fill: #474756"/>
                  <path d="M69.48,280.76a2.2,2.2,0,0,1-.87,2l-1.31.78c-.56.32-.21-.4-1.06-.89a6.84,6.84,0,0,1-3.11-5.36c0-1-.9-1-.35-1.31l1.4-.79a2.2,2.2,0,0,1,2.19.23A6.84,6.84,0,0,1,69.48,280.76Z" style="fill: #545466"/>
                  <path d="M68.09,281.57c0,2-1.39,2.77-3.11,1.77A6.84,6.84,0,0,1,61.87,278c0-2,1.39-2.76,3.11-1.77A6.84,6.84,0,0,1,68.09,281.57Z" style="fill: #545466"/>
                </g>
              </g>
              <g>
                <path d="M107.12,296.69c0,3.47-1.2,5.93-3.15,7.12l-6.22,3.6c-2,1.14-.73-1.44-3.81-3.21-6.19-3.58-11.22-12.25-11.22-19.36,0-3.52-3.25-3.54-1.26-4.72l6.6-3.65c2-1.1,4.79-.9,7.84.86C102.09,280.91,107.12,289.58,107.12,296.69Z" style="fill: #474756"/>
                <path d="M100.62,300.38c0,7.11-5,10-11.22,6.4s-11.22-12.25-11.22-19.36,5-10,11.22-6.4S100.62,293.27,100.62,300.38Z" style="fill: #545466"/>
                <path d="M89.31,286.14c-4-2.31-7.25-.46-7.25,4.13a16,16,0,0,0,7.25,12.51c4,2.31,7.25.46,7.25-4.13A16,16,0,0,0,89.31,286.14Z" style="fill: url(#linear-gradient-13)"/>
                <path d="M91.89,301.12a16,16,0,0,1-7.25-12.51,6.38,6.38,0,0,1,.85-3.42c-2.06.28-3.43,2.1-3.43,5.08a16,16,0,0,0,7.25,12.51c2.77,1.6,5.17,1.2,6.4-.71A6.09,6.09,0,0,1,91.89,301.12Z" style="fill: url(#linear-gradient-14)"/>
                <path d="M94.34,298c0,2.83-2,4-4.48,2.55a9.86,9.86,0,0,1-4.47-7.72c0-2.83,2-4,4.47-2.55A9.87,9.87,0,0,1,94.34,298Z" style="mix-blend-mode: multiply;fill: url(#linear-gradient-15)"/>
                <path d="M94,296.38c0,2.4-1.7,3.37-3.79,2.16A8.35,8.35,0,0,1,86.4,292c0-2.4,1.7-3.36,3.79-2.16A8.37,8.37,0,0,1,94,296.38Z" style="fill: url(#linear-gradient-16)"/>
                <path d="M92.94,297.09c0,2.4-1.69,3.37-3.78,2.16a8.31,8.31,0,0,1-3.79-6.53c0-2.4,1.69-3.37,3.79-2.16A8.34,8.34,0,0,1,92.94,297.09Z" style="fill: #e7f1f7"/>
                <g>
                  <path d="M107,296.67c0,3.49-1.21,6-3.17,7.16,0,0-5.91,3.43-6,3.47-2,1.14-.74-1.45-3.83-3.24-6.24-3.6-11.29-12.31-11.29-19.47,0-3.53-3.27-3.56-1.27-4.74l6.36-3.52c2-1.1,4.82-.9,7.88.87C102,280.8,107,289.51,107,296.67Z" style="fill: #4c4c5e"/>
                  <path d="M100.75,300.22c0,7.15-5,10-11.29,6.44s-11.28-12.32-11.28-19.47,5-10,11.28-6.44S100.75,293.07,100.75,300.22Z" style="fill: #474756"/>
                  <path d="M97.51,298.35c0,5.09-3.6,7.15-8.05,4.58s-8-8.77-8-13.87,3.6-7.15,8-4.58S97.51,293.25,97.51,298.35Z" style="fill: #e7f1f7"/>
                  <path d="M97.51,298.35a6.86,6.86,0,0,1-1,3.9c-1.38,1-3.39,1-5.63-.33A16.54,16.54,0,0,1,83.36,289c0-3.43,1.75-5.39,4.29-5.3a8.87,8.87,0,0,1,1.81.81C93.91,287,97.51,293.25,97.51,298.35Z" style="fill: #e7f1f7"/>
                  <path d="M84.87,283.48c-1.43.84-2.32,2.62-2.32,5.14,0,5.1,3.6,11.31,8,13.87a6.49,6.49,0,0,0,4.6,1c-1.46.85-3.49.74-5.73-.56-4.44-2.56-8-8.77-8-13.87C81.42,285.93,82.79,283.94,84.87,283.48Z" style="fill: #474756"/>
                  <path d="M92.53,295c0,1.33-.94,1.87-2.11,1.2a4.64,4.64,0,0,1-2.1-3.63c0-1.33.94-1.87,2.1-1.2A4.63,4.63,0,0,1,92.53,295Z" style="fill: url(#radial-gradient-2)"/>
                  <path d="M89.56,286.79a2.33,2.33,0,0,0,1,1.82c.58.33,1,.06,1-.6a2.3,2.3,0,0,0-1-1.81C90,285.86,89.56,286.13,89.56,286.79Zm0,12.31a2.3,2.3,0,0,0,1,1.81c.58.34,1,.07,1-.59a2.33,2.33,0,0,0-1-1.82C90,298.17,89.56,298.44,89.56,299.1Zm-2-12.51c-.41-.71-1.07-1.09-1.48-.86s-.41,1,0,1.71,1.07,1.09,1.48.86S88,287.3,87.56,286.59Zm6.1,13.93c.41.71,1.08,1.09,1.49.86s.41-1,0-1.71-1.08-1.09-1.49-.86S93.25,299.81,93.66,300.52ZM84.2,289.85a2.3,2.3,0,0,0,1,1.81c.58.34,1,.07,1-.59a2.33,2.33,0,0,0-1-1.82C84.67,288.92,84.2,289.19,84.2,289.85ZM94.92,296a2.33,2.33,0,0,0,1,1.82c.58.33,1,.06,1-.6a2.3,2.3,0,0,0-1-1.81C95.39,295.11,94.92,295.38,94.92,296Zm-8.84.1c.41.71,1.07,1.09,1.48.86s.41-1,0-1.71-1.07-1.09-1.48-.85S85.67,295.43,86.08,296.14Zm7.58-4.32c.41.7,1.08,1.09,1.49.85s.41-1,0-1.7-1.08-1.09-1.49-.86S93.25,291.11,93.66,291.82Z" style="fill: #474756"/>
                  <path d="M93.86,295a2.19,2.19,0,0,1-.87,2l-1.31.78c-.56.32-.2-.4-1.06-.89a6.84,6.84,0,0,1-3.11-5.36c0-1-.9-1-.35-1.31l1.4-.79a2.22,2.22,0,0,1,2.19.23A6.84,6.84,0,0,1,93.86,295Z" style="fill: #545466"/>
                  <path d="M92.47,295.77c0,2-1.39,2.77-3.11,1.78a6.87,6.87,0,0,1-3.11-5.37c0-2,1.39-2.76,3.11-1.77A6.84,6.84,0,0,1,92.47,295.77Z" style="fill: #545466"/>
                </g>
              </g>
              <g>
                <polygon points="149.26 313.19 149.26 323.91 113.13 302.95 113.13 292.27 149.26 313.19" style="fill: #9aa0a6"/>
                <polygon points="149.26 313.19 149.26 323.91 159.41 318.13 159.41 307.39 149.26 313.19" style="fill: #9aa0a6"/>
                <polygon points="159.41 307.39 149.26 313.19 113.13 292.27 123.29 286.48 159.41 307.39" style="fill: url(#linear-gradient-17)"/>
              </g>
              <g>
                <polygon points="46.3 252.62 46.3 266.26 44.96 265.2 44.96 251.59 46.3 252.62" style="fill: #8c9399"/>
                <polygon points="46.3 252.62 46.3 266.26 78.8 248 78.8 234.33 46.3 252.62" style="fill: #8c9399"/>
                <polygon points="78.8 234.33 46.3 252.62 44.96 251.59 77.48 233.31 78.8 234.33" style="fill: #e7f1f7"/>
              </g>
              <polygon points="106.35 286.63 106.35 306.95 102.72 304.86 102.72 288.69 53.47 260.26 53.47 276.42 49.85 274.33 49.85 254.01 106.35 286.63" style="fill: #c5d4dd"/>
              <polygon points="106.37 286.67 106.37 306.99 109.88 305.02 109.88 284.57 106.37 286.67" style="fill: #b4c4cc"/>
              <g>
                <polygon points="143.31 322.14 141.47 323.22 111.48 305.94 113.34 304.88 143.31 322.14" style="fill: #b4c4cc"/>
                <polygon points="111.44 294.96 111.44 305.95 113.34 304.89 113.34 293.83 111.44 294.96" style="fill: #b4c4cc"/>
                <path d="M108.71,291.93v15.5L144.19,328V312.37Zm2.77,4.78,30,17.25v9.25l-29.95-17.37Z" style="fill: #c5d4dd"/>
                <polygon points="144.18 312.37 144.18 328.01 146.51 326.83 146.51 311.09 144.18 312.37" style="fill: #b4c4cc"/>
                <polygon points="146.51 311.09 144.18 312.37 108.71 291.93 111.06 290.69 146.51 311.09" style="fill: #b4c4cc"/>
              </g>
              <g>
                <path d="M178,337.94c0,3.47-1.2,5.93-3.15,7.12l-6.22,3.6c-2,1.13-.73-1.44-3.81-3.22-6.19-3.58-11.22-12.24-11.22-19.35,0-3.52-3.25-3.55-1.26-4.72.06,0,6.55-3.62,6.6-3.66,2-1.09,4.79-.89,7.84.87C173,322.16,178,330.82,178,337.94Z" style="fill: #474756"/>
                <path d="M171.53,341.62c0,7.12-5,10-11.22,6.4s-11.22-12.24-11.22-19.35,5-10,11.22-6.4S171.53,334.51,171.53,341.62Z" style="fill: #545466"/>
                <path d="M160.22,327.38c-4-2.3-7.25-.45-7.25,4.14A16,16,0,0,0,160.22,344c4,2.31,7.25.45,7.25-4.14A16,16,0,0,0,160.22,327.38Z" style="fill: #b4c4cc"/>
                <path d="M163.85,338.34c0,2.4-1.69,3.37-3.79,2.16a8.34,8.34,0,0,1-3.78-6.54c0-2.4,1.69-3.36,3.78-2.16A8.34,8.34,0,0,1,163.85,338.34Z" style="fill: #e7f1f7"/>
                <g>
                  <path d="M177.58,337.73c0,3.49-1.2,6-3.16,7.16l-6,3.47c-2,1.14-.74-1.45-3.83-3.24-6.24-3.6-11.29-12.31-11.29-19.46,0-3.54-3.27-3.57-1.27-4.75l6.37-3.52c2-1.1,4.81-.9,7.87.87C172.53,321.86,177.58,330.57,177.58,337.73Z" style="fill: #4c4c5e"/>
                  <path d="M171.32,341.28c0,7.16-5,10-11.28,6.44s-11.29-12.32-11.29-19.47,5.05-10,11.29-6.43S171.32,334.13,171.32,341.28Z" style="fill: #474756"/>
                  <path d="M168.08,339.41c0,5.1-3.6,7.15-8,4.59s-8-8.78-8-13.88,3.6-7.15,8-4.58S168.08,334.31,168.08,339.41Z" style="fill: #e7f1f7"/>
                  <path d="M168.08,339.41a6.86,6.86,0,0,1-1,3.9c-1.38,1-3.39,1-5.63-.33a16.54,16.54,0,0,1-7.5-12.94c0-3.44,1.75-5.39,4.29-5.31a9.19,9.19,0,0,1,1.82.81C164.48,328.1,168.08,334.31,168.08,339.41Z" style="fill: #e7f1f7"/>
                  <path d="M155.44,324.54c-1.43.84-2.32,2.62-2.32,5.15,0,5.09,3.6,11.3,8,13.87a6.53,6.53,0,0,0,4.6,1c-1.46.86-3.49.74-5.72-.55-4.45-2.57-8-8.78-8-13.88C152,327,153.36,325,155.44,324.54Z" style="fill: #474756"/>
                  <path d="M163.1,336c0,1.34-.94,1.87-2.11,1.2a4.63,4.63,0,0,1-2.1-3.63c0-1.33.94-1.87,2.1-1.2A4.63,4.63,0,0,1,163.1,336Z" style="fill: url(#radial-gradient-3)"/>
                  <path d="M160.13,327.86a2.33,2.33,0,0,0,1.05,1.81c.58.33,1,.07,1-.6a2.3,2.3,0,0,0-1-1.81C160.6,326.92,160.13,327.19,160.13,327.86Zm0,12.3a2.33,2.33,0,0,0,1.05,1.82c.58.33,1,.06,1-.6a2.3,2.3,0,0,0-1-1.81C160.6,339.23,160.13,339.5,160.13,340.16Zm-2-12.51c-.41-.7-1.07-1.09-1.48-.85s-.41,1,0,1.7,1.07,1.09,1.48.86S158.54,328.36,158.13,327.65Zm6.1,13.93c.41.71,1.08,1.09,1.49.86s.41-1,0-1.71-1.08-1.09-1.49-.85S163.82,340.87,164.23,341.58Zm-9.46-10.66a2.33,2.33,0,0,0,1,1.81c.58.33,1.05.06,1.05-.6a2.3,2.3,0,0,0-1.05-1.81C155.24,330,154.77,330.25,154.77,330.92Zm10.72,6.19a2.33,2.33,0,0,0,1,1.81c.58.33,1.05.07,1.05-.6a2.3,2.3,0,0,0-1.05-1.81C166,336.17,165.49,336.44,165.49,337.11Zm-8.84.09c.41.71,1.07,1.09,1.48.86s.41-1,0-1.7-1.07-1.1-1.48-.86S156.24,336.5,156.65,337.2Zm7.58-4.32c.41.71,1.08,1.09,1.49.86s.41-1,0-1.71-1.08-1.09-1.49-.86S163.82,332.17,164.23,332.88Z" style="fill: #474756"/>
                  <path d="M164.43,336a2.18,2.18,0,0,1-.87,2l-1.31.79c-.56.31-.2-.4-1.06-.9a6.86,6.86,0,0,1-3.11-5.36c0-1-.9-1-.35-1.31l1.41-.79a2.21,2.21,0,0,1,2.18.23A6.84,6.84,0,0,1,164.43,336Z" style="fill: #545466"/>
                  <path d="M163,336.84c0,2-1.39,2.76-3.11,1.77a6.87,6.87,0,0,1-3.11-5.37c0-2,1.4-2.76,3.11-1.77A6.84,6.84,0,0,1,163,336.84Z" style="fill: #545466"/>
                </g>
              </g>
              <g>
                <polygon points="218.83 355.76 218.83 371.4 172.02 344.37 172.02 328.87 218.83 355.76" style="fill: #cfdee8"/>
                <polygon points="185.35 336.64 185.35 351.71 184.6 351.31 184.6 336.21 185.35 336.64" style="fill: #e7f1f7;mix-blend-mode: multiply"/>
                <polygon points="218.81 355.76 218.81 371.4 255.79 350.37 255.79 334.63 218.81 355.76" style="fill: #e7f1f7"/>
                <polygon points="255.79 334.63 218.81 355.76 172.02 328.87 209.02 307.77 255.79 334.63" style="fill: #e7f1f7"/>
              </g>
              <g>
                <polygon points="212.53 345.33 212.53 350.54 44.02 252.54 44.02 247.5 212.53 345.33" style="fill: #545466"/>
                <polygon points="212.52 345.33 212.52 350.54 258.74 324.24 258.74 318.92 212.52 345.33" style="fill: #545466"/>
                <polygon points="258.74 318.92 212.52 345.33 44.02 247.5 90.28 221.13 258.74 318.92" style="fill: #545466"/>
              </g>
              <g>
                <polygon points="212.53 288.83 212.53 345.58 44.02 247.59 44.02 191 212.53 288.83" style="fill: #cfdee8"/>
                <polygon points="208.54 291.13 48.01 197.94 48.01 245.29 208.54 338.64 208.54 291.13" style="fill: #e6e7e8;mix-blend-mode: multiply"/>
                <g>
                  <g>
                    <polygon points="203.44 288.84 205.54 290.23 205.54 337.74 203.44 336.35 203.44 288.84" style="fill: #dce8f1;mix-blend-mode: multiply"/>
                    <polygon points="205.64 290.04 206.44 290 206.44 337.51 205.64 337.54 205.64 290.04" style="fill: #dce8f1;mix-blend-mode: multiply"/>
                  </g>
                  <g>
                    <polygon points="196.56 284.84 198.66 286.23 198.66 333.74 196.56 332.34 196.56 284.84" style="fill: #dce8f1;mix-blend-mode: multiply"/>
                    <polygon points="198.75 286.04 199.55 286 199.55 333.51 198.75 333.54 198.75 286.04" style="fill: #dce8f1;mix-blend-mode: multiply"/>
                  </g>
                  <g>
                    <polygon points="189.67 280.84 191.77 282.23 191.77 329.74 189.67 328.34 189.67 280.84" style="fill: #dce8f1;mix-blend-mode: multiply"/>
                    <polygon points="191.86 282.04 192.66 282 192.66 329.51 191.86 329.54 191.86 282.04" style="fill: #dce8f1;mix-blend-mode: multiply"/>
                  </g>
                  <g>
                    <polygon points="182.78 276.84 184.88 278.23 184.88 325.74 182.78 324.34 182.78 276.84" style="fill: #dce8f1;mix-blend-mode: multiply"/>
                    <polygon points="184.98 278.04 185.78 278 185.78 325.51 184.98 325.54 184.98 278.04" style="fill: #dce8f1;mix-blend-mode: multiply"/>
                  </g>
                  <g>
                    <polygon points="175.89 272.84 177.99 274.23 177.99 321.74 175.89 320.34 175.89 272.84" style="fill: #dce8f1;mix-blend-mode: multiply"/>
                    <polygon points="178.09 274.04 178.89 274 178.89 321.51 178.09 321.54 178.09 274.04" style="fill: #dce8f1;mix-blend-mode: multiply"/>
                  </g>
                  <g>
                    <polygon points="169 268.84 171.1 270.23 171.1 317.74 169 316.34 169 268.84" style="fill: #dce8f1;mix-blend-mode: multiply"/>
                    <polygon points="171.2 270.04 172 270 172 317.51 171.2 317.54 171.2 270.04" style="fill: #dce8f1;mix-blend-mode: multiply"/>
                  </g>
                  <g>
                    <polygon points="162.12 264.84 164.22 266.23 164.22 313.73 162.12 312.34 162.12 264.84" style="fill: #dce8f1;mix-blend-mode: multiply"/>
                    <polygon points="164.31 266.03 165.11 266 165.11 313.51 164.31 313.54 164.31 266.03" style="fill: #dce8f1;mix-blend-mode: multiply"/>
                  </g>
                  <g>
                    <polygon points="155.23 260.83 157.33 262.23 157.33 309.73 155.23 308.34 155.23 260.83" style="fill: #dce8f1;mix-blend-mode: multiply"/>
                    <polygon points="157.42 262.03 158.22 262 158.22 309.51 157.42 309.54 157.42 262.03" style="fill: #dce8f1;mix-blend-mode: multiply"/>
                  </g>
                  <g>
                    <polygon points="148.34 256.83 150.44 258.22 150.44 305.73 148.34 304.34 148.34 256.83" style="fill: #dce8f1;mix-blend-mode: multiply"/>
                    <polygon points="150.54 258.03 151.34 258 151.34 305.51 150.54 305.54 150.54 258.03" style="fill: #dce8f1;mix-blend-mode: multiply"/>
                  </g>
                  <g>
                    <polygon points="141.45 252.83 143.55 254.22 143.55 301.73 141.45 300.34 141.45 252.83" style="fill: #dce8f1;mix-blend-mode: multiply"/>
                    <polygon points="143.65 254.03 144.45 254 144.45 301.5 143.65 301.54 143.65 254.03" style="fill: #dce8f1;mix-blend-mode: multiply"/>
                  </g>
                  <g>
                    <polygon points="134.56 248.83 136.66 250.22 136.66 297.73 134.56 296.34 134.56 248.83" style="fill: #dce8f1;mix-blend-mode: multiply"/>
                    <polygon points="136.76 250.03 137.56 250 137.56 297.5 136.76 297.53 136.76 250.03" style="fill: #dce8f1;mix-blend-mode: multiply"/>
                  </g>
                  <g>
                    <polygon points="127.67 244.83 129.78 246.22 129.78 293.73 127.67 292.33 127.67 244.83" style="fill: #dce8f1;mix-blend-mode: multiply"/>
                    <polygon points="129.87 246.03 130.67 245.99 130.67 293.5 129.87 293.53 129.87 246.03" style="fill: #dce8f1;mix-blend-mode: multiply"/>
                  </g>
                  <g>
                    <polygon points="120.79 240.83 122.89 242.22 122.89 289.73 120.79 288.33 120.79 240.83" style="fill: #dce8f1;mix-blend-mode: multiply"/>
                    <polygon points="122.98 242.03 123.78 241.99 123.78 289.5 122.98 289.53 122.98 242.03" style="fill: #dce8f1;mix-blend-mode: multiply"/>
                  </g>
                  <g>
                    <polygon points="113.9 236.83 116 238.22 116 285.73 113.9 284.33 113.9 236.83" style="fill: #dce8f1;mix-blend-mode: multiply"/>
                    <polygon points="116.09 238.03 116.89 237.99 116.89 285.5 116.09 285.53 116.09 238.03" style="fill: #dce8f1;mix-blend-mode: multiply"/>
                  </g>
                  <g>
                    <polygon points="107.01 232.83 109.11 234.22 109.11 281.73 107.01 280.33 107.01 232.83" style="fill: #dce8f1;mix-blend-mode: multiply"/>
                    <polygon points="109.21 234.03 110.01 233.99 110.01 281.5 109.21 281.53 109.21 234.03" style="fill: #dce8f1;mix-blend-mode: multiply"/>
                  </g>
                  <g>
                    <polygon points="100.12 228.83 102.22 230.22 102.22 277.73 100.12 276.33 100.12 228.83" style="fill: #dce8f1;mix-blend-mode: multiply"/>
                    <polygon points="102.32 230.03 103.12 229.99 103.12 277.5 102.32 277.53 102.32 230.03" style="fill: #dce8f1;mix-blend-mode: multiply"/>
                  </g>
                  <g>
                    <polygon points="93.23 224.83 95.33 226.22 95.33 273.73 93.23 272.33 93.23 224.83" style="fill: #dce8f1;mix-blend-mode: multiply"/>
                    <polygon points="95.43 226.03 96.23 225.99 96.23 273.5 95.43 273.53 95.43 226.03" style="fill: #dce8f1;mix-blend-mode: multiply"/>
                  </g>
                  <g>
                    <polygon points="86.35 220.83 88.45 222.22 88.45 269.72 86.35 268.33 86.35 220.83" style="fill: #dce8f1;mix-blend-mode: multiply"/>
                    <polygon points="88.54 222.02 89.34 221.99 89.34 269.5 88.54 269.53 88.54 222.02" style="fill: #dce8f1;mix-blend-mode: multiply"/>
                  </g>
                  <g>
                    <polygon points="79.46 216.82 81.56 218.22 81.56 265.72 79.46 264.33 79.46 216.82" style="fill: #dce8f1;mix-blend-mode: multiply"/>
                    <polygon points="81.66 218.02 82.45 217.99 82.45 265.5 81.66 265.53 81.66 218.02" style="fill: #dce8f1;mix-blend-mode: multiply"/>
                  </g>
                  <g>
                    <polygon points="72.57 212.82 74.67 214.21 74.67 261.72 72.57 260.33 72.57 212.82" style="fill: #dce8f1;mix-blend-mode: multiply"/>
                    <polygon points="74.77 214.02 75.57 213.99 75.57 261.5 74.77 261.53 74.77 214.02" style="fill: #dce8f1;mix-blend-mode: multiply"/>
                  </g>
                  <g>
                    <polygon points="65.68 208.82 67.78 210.21 67.78 257.72 65.68 256.33 65.68 208.82" style="fill: #dce8f1;mix-blend-mode: multiply"/>
                    <polygon points="67.88 210.02 68.68 209.99 68.68 257.5 67.88 257.52 67.88 210.02" style="fill: #dce8f1;mix-blend-mode: multiply"/>
                  </g>
                  <g>
                    <polygon points="58.79 204.82 60.89 206.21 60.89 253.72 58.79 252.33 58.79 204.82" style="fill: #dce8f1;mix-blend-mode: multiply"/>
                    <polygon points="60.99 206.02 61.79 205.99 61.79 253.49 60.99 253.52 60.99 206.02" style="fill: #dce8f1;mix-blend-mode: multiply"/>
                  </g>
                  <g>
                    <polygon points="51.91 200.82 54.01 202.21 54.01 249.72 51.91 248.32 51.91 200.82" style="fill: #dce8f1;mix-blend-mode: multiply"/>
                    <polygon points="54.1 202.02 54.9 201.99 54.9 249.49 54.1 249.52 54.1 202.02" style="fill: #dce8f1;mix-blend-mode: multiply"/>
                  </g>
                </g>
                <polygon points="212.52 288.83 212.52 345.58 258.74 319.28 258.74 262.41 212.52 288.83" style="fill: #dce8f1"/>
                <polygon points="254.75 316.96 254.75 269.3 216.51 291.15 216.51 338.71 254.75 316.96" style="fill: #e6e7e8;mix-blend-mode: multiply"/>
                <polygon points="258.74 262.41 212.52 288.83 44.02 191 90.28 164.62 258.74 262.41" style="fill: #e7f1f7"/>
                <g>
                  <g>
                    <polygon points="220.39 289.69 218.29 291.08 218.29 338.59 220.39 337.2 220.39 289.69" style="fill: #dce8f1;mix-blend-mode: multiply"/>
                    <polygon points="218.19 290.89 217.4 290.86 217.4 338.36 218.19 338.39 218.19 290.89" style="fill: #dce8f1;mix-blend-mode: multiply"/>
                  </g>
                  <g>
                    <polygon points="226.62 286.03 224.52 287.42 224.52 334.93 226.62 333.54 226.62 286.03" style="fill: #dce8f1;mix-blend-mode: multiply"/>
                    <polygon points="224.42 287.23 223.62 287.2 223.62 334.7 224.42 334.74 224.42 287.23" style="fill: #dce8f1;mix-blend-mode: multiply"/>
                  </g>
                  <g>
                    <polygon points="232.84 282.37 230.74 283.76 230.74 331.27 232.84 329.88 232.84 282.37" style="fill: #dce8f1;mix-blend-mode: multiply"/>
                    <polygon points="230.65 283.57 229.85 283.54 229.85 331.05 230.65 331.08 230.65 283.57" style="fill: #dce8f1;mix-blend-mode: multiply"/>
                  </g>
                  <g>
                    <polygon points="239.07 278.71 236.97 280.11 236.97 327.61 239.07 326.22 239.07 278.71" style="fill: #dce8f1;mix-blend-mode: multiply"/>
                    <polygon points="236.87 279.91 236.07 279.88 236.07 327.39 236.87 327.42 236.87 279.91" style="fill: #dce8f1;mix-blend-mode: multiply"/>
                  </g>
                  <g>
                    <polygon points="245.29 275.06 243.19 276.45 243.19 323.95 245.29 322.56 245.29 275.06" style="fill: #dce8f1;mix-blend-mode: multiply"/>
                    <polygon points="243.1 276.25 242.3 276.22 242.3 323.73 243.1 323.76 243.1 276.25" style="fill: #dce8f1;mix-blend-mode: multiply"/>
                  </g>
                  <g>
                    <polygon points="251.52 271.4 249.42 272.79 249.42 320.3 251.52 318.9 251.52 271.4" style="fill: #dce8f1;mix-blend-mode: multiply"/>
                    <polygon points="249.32 272.6 248.52 272.56 248.52 320.07 249.32 320.1 249.32 272.6" style="fill: #dce8f1;mix-blend-mode: multiply"/>
                  </g>
                </g>
              </g>
              <g>
                <path d="M258.55,284.37l30.39,17.7a15.79,15.79,0,0,1,7.48,9.81l4.27,16.85a62.62,62.62,0,0,1,1.92,15.41v19.73l-43.34,24.54V370.86A62.71,62.71,0,0,0,256.36,352l-5.52-17.49a15.75,15.75,0,0,0-7.24-8.94L215.19,309Z" style="fill: red"/>
                <path d="M259.29,370.78v17.63l-23.2-13.32-1.79-10.24-19.11-11.38V309l28.52,16.63a15.74,15.74,0,0,1,7.25,9l5.47,17.47A62.89,62.89,0,0,1,259.29,370.78Z" style="fill: #e50000"/>
                <path d="M248.32,335.4l5.47,17.48a1.38,1.38,0,0,1-2,1.61l-17.17-10a3.71,3.71,0,0,1-1.83-3.2V326.94a1.38,1.38,0,0,1,2.08-1.2L245.51,332a6.15,6.15,0,0,1,2.8,3.42Z" style="fill: #26262e"/>
                <path d="M252.47,354.19a.94.94,0,0,0,.73-.37.88.88,0,0,0,.12-.79l-5.47-17.47a5.67,5.67,0,0,0-2.59-3.18l-10.66-6.22-.33,0c-.66,0-1,.32-1,.79v14.35a3.2,3.2,0,0,0,1.6,2.77l17.16,10Z" style="fill: #616173"/>
                <path d="M266.66,357.06v6.47a9,9,0,0,0,13.41,7.79l6.21-3.55a21.85,21.85,0,0,0,11-19v-9.35Z" style="fill: #e50000"/>
                <path d="M275.64,370.11a6.39,6.39,0,0,0,3.24-.88l6.21-3.54a19.5,19.5,0,0,0,9.8-16.89v-5.21l-25.83,14.86v5.08A6.59,6.59,0,0,0,275.64,370.11Z" style="fill: #616173"/>
                <path d="M292.78,357.59l-20.32,11.68a7.71,7.71,0,0,0,1.26.54l18-10.32A19.94,19.94,0,0,0,292.78,357.59Zm1.73-5-24.62,14.15a5.26,5.26,0,0,0,.63.91l23.63-13.59Q294.36,353.34,294.51,352.6Zm.38-4.22-25.83,14.86v.29a5.65,5.65,0,0,0,.07.93l25.73-14.79q0-.44,0-.87Zm-25.83,10.86v1.27l25.83-14.86v-1.26Z" style="fill: #474756;opacity: 0.5"/>
                <path d="M260.79,354.7a2.46,2.46,0,0,0,1.26-.34l35.17-19.94a4.33,4.33,0,0,0,2-4.8l-4.4-17.35a14.34,14.34,0,0,0-.94-2.59,1.58,1.58,0,0,0-1.41-.9,1.48,1.48,0,0,0-.76.21l-38.3,22a2.54,2.54,0,0,0-1.12,3l6,18.95a2.57,2.57,0,0,0,2.46,1.8Z" style="fill: #26262e"/>
                <path d="M260.79,354.21a2,2,0,0,0,1-.28L297,334a3.84,3.84,0,0,0,1.82-4.25l-4.4-17.34a13.12,13.12,0,0,0-.91-2.5,1,1,0,0,0-1.46-.49l-38.32,22a2,2,0,0,0-.88,2.4l6,18.95A2.08,2.08,0,0,0,260.79,354.21Z" style="fill: #616173"/>
                <g>
                  <path d="M221.74,319.79l5.13,3a2.37,2.37,0,0,1,1.17,2v13.6a.29.29,0,0,1-.29.28l-4.91-2.83a2.23,2.23,0,0,1-1.1-1.91V319.79Z" style="fill: #26262e"/>
                  <path d="M227.54,324.82a1.85,1.85,0,0,0-.93-1.61l-4.38-2.56V334a1.72,1.72,0,0,0,.85,1.48l4.46,2.56Z" style="fill: #616173"/>
                </g>
                <polygon points="234.03 352.23 215.19 353.47 234.25 364.74 234.03 352.23" style="mix-blend-mode: multiply;fill: url(#linear-gradient-18)"/>
              </g>
              <polygon points="220.93 361.85 220.93 370.43 227.46 366.77 227.03 358.21 220.93 361.85" style="fill: #b4c4cc"/>
              <g>
                <path d="M250,379.64c0,3.49-1.2,6-3.17,7.16-.05,0-5.91,3.44-6,3.47-2,1.14-.74-1.45-3.83-3.24-6.24-3.59-11.29-12.31-11.29-19.46,0-3.54-3.27-3.57-1.27-4.75l6.37-3.52c2-1.1,4.81-.9,7.87.87C245,363.77,250,372.49,250,379.64Z" style="fill: #4c4c5e"/>
                <path d="M243.78,383.19c0,7.16-5.05,10-11.28,6.44s-11.29-12.32-11.29-19.47,5-10,11.29-6.43S243.78,376,243.78,383.19Z" style="fill: #474756"/>
                <path d="M240.54,381.32c0,5.1-3.6,7.15-8,4.59s-8.05-8.78-8.05-13.88,3.6-7.14,8.05-4.58S240.54,376.22,240.54,381.32Z" style="fill: #e7f1f7"/>
                <path d="M240.54,381.32a6.92,6.92,0,0,1-1,3.91c-1.38,1-3.39,1-5.63-.34a16.54,16.54,0,0,1-7.5-12.94c0-3.44,1.75-5.39,4.29-5.31a9.19,9.19,0,0,1,1.82.81C236.94,370,240.54,376.22,240.54,381.32Z" style="fill: #e7f1f7"/>
                <path d="M227.9,366.45c-1.43.84-2.32,2.62-2.32,5.15,0,5.09,3.6,11.3,8,13.87a6.48,6.48,0,0,0,4.6,1c-1.46.86-3.49.74-5.72-.55-4.45-2.57-8.05-8.78-8.05-13.88C224.45,368.9,225.82,366.92,227.9,366.45Z" style="fill: #474756"/>
                <path d="M235.56,377.93c0,1.34-.94,1.87-2.11,1.2a4.63,4.63,0,0,1-2.1-3.63c0-1.33.94-1.87,2.1-1.2A4.63,4.63,0,0,1,235.56,377.93Z" style="fill: url(#radial-gradient-4)"/>
                <path d="M232.59,369.77a2.31,2.31,0,0,0,1,1.81c.58.34,1.05.07,1.05-.6a2.31,2.31,0,0,0-1.05-1.81C233.06,368.83,232.59,369.1,232.59,369.77Zm0,12.31a2.33,2.33,0,0,0,1,1.81c.58.33,1.05.06,1.05-.6a2.3,2.3,0,0,0-1.05-1.81C233.06,381.14,232.59,381.41,232.59,382.08Zm-2-12.52c-.41-.7-1.07-1.09-1.48-.85s-.41,1,0,1.7,1.07,1.09,1.48.86S231,370.27,230.59,369.56Zm6.1,13.93c.41.71,1.08,1.09,1.49.86s.41-1,0-1.7-1.08-1.1-1.49-.86S236.28,382.78,236.69,383.49Zm-9.46-10.66a2.33,2.33,0,0,0,1.05,1.81c.58.33,1.05.07,1.05-.6a2.3,2.3,0,0,0-1.05-1.81C227.7,371.89,227.23,372.16,227.23,372.83ZM238,379a2.31,2.31,0,0,0,1.05,1.81c.58.34,1.05.07,1.05-.6a2.31,2.31,0,0,0-1.05-1.81C238.42,378.08,238,378.35,238,379Zm-8.84.09c.41.71,1.07,1.1,1.48.86s.41-1,0-1.7-1.07-1.09-1.48-.86S228.7,378.41,229.11,379.11Zm7.58-4.32c.41.71,1.08,1.09,1.49.86s.41-1,0-1.71-1.08-1.09-1.49-.85S236.28,374.08,236.69,374.79Z" style="fill: #474756"/>
                <path d="M236.89,377.94a2.18,2.18,0,0,1-.87,2l-1.31.79c-.56.31-.2-.4-1.06-.9a6.86,6.86,0,0,1-3.11-5.36c0-1-.9-1-.35-1.31l1.41-.79a2.21,2.21,0,0,1,2.18.23A6.86,6.86,0,0,1,236.89,377.94Z" style="fill: #545466"/>
                <path d="M235.5,378.75c0,2-1.39,2.76-3.11,1.77a6.86,6.86,0,0,1-3.11-5.36c0-2,1.4-2.77,3.11-1.78A6.86,6.86,0,0,1,235.5,378.75Z" style="fill: #545466"/>
              </g>
              <polygon points="246.63 389.11 246.63 376.68 238.55 362.73 227.15 356.15 234.03 352.23 245.47 358.84 253.55 372.79 253.55 385.21 246.63 389.11" style="fill: #e7f1f7"/>
              <polygon points="246.63 376.68 238.55 362.73 245.47 358.84 253.55 372.79 246.63 376.68" style="fill: #dce8f1"/>
              <polygon points="244.72 388.08 244.72 377.2 237.15 364.13 227.1 358.33 220.93 361.85 220.93 370.43 219.02 369.34 219.02 360.74 227.11 356.13 238.55 362.73 246.63 376.68 246.63 389.18 244.72 388.08" style="fill: #cfdee8"/>
              <g>
                <path d="M305.87,359.69l-43.36,25.73a6.89,6.89,0,0,1-6.82,0l-8.11-4.54v7.38l8.18,4.6a6.92,6.92,0,0,0,6.85,0L305.87,368Z" style="fill: #cfdee8"/>
                <path d="M305.13,361.1l-42.62,24.32a6.89,6.89,0,0,1-6.82,0l-8.11-4.54,2.22-1.27,5.87,3.32a6.9,6.9,0,0,0,6.88,0l40-23.09V356.9l2.6,1.6A1.51,1.51,0,0,1,305.13,361.1Z" style="fill: #e7f1f7"/>
                <g style="mix-blend-mode: color-dodge">
                  <polygon points="302.63 359.34 302.58 359.37 302.57 356.9 302.62 356.93 302.63 359.34" style="fill: url(#radial-gradient-5)"/>
                  <path d="M248.05,380.62l7.69,4.31a6.89,6.89,0,0,0,6.82,0l42.62-24.32a1.48,1.48,0,0,0,.7-.89,1.48,1.48,0,0,1-.75,1.39l-42.62,24.32a6.89,6.89,0,0,1-6.82,0l-8.11-4.54Z" style="fill: url(#radial-gradient-6)"/>
                </g>
              </g>
              <g>
                <path d="M215.11,295.82l42.65-24.47L273.84,281a22.61,22.61,0,0,1,11.24,19.54l-.07,0-42.55,24.23Z" style="fill: #ff4a4a"/>
                <path d="M242.51,324.71h0l-27.43-16.1V295.74l16.19,9.43A22.61,22.61,0,0,1,242.51,324.71Z" style="fill: #e50000"/>
              </g>
              <path d="M269,374.68l-8.08,4.56a1.12,1.12,0,0,1-1.68-1v-3.53a3,3,0,0,1,1.62-2.68l2.54-1.34a3,3,0,0,1,3.21.24l2.51,1.84A1.12,1.12,0,0,1,269,374.68Z" style="fill: #e7f1f7;mix-blend-mode: multiply"/>
              <path d="M302.62,353.13v2.93a1.06,1.06,0,0,1-.58,1l-3.52,1.81a.83.83,0,0,1-1.15-1l1.4-3.82a2.28,2.28,0,0,1,1.16-1.26l1.15-.56A1.08,1.08,0,0,1,302.62,353.13Z" style="fill: #e7f1f7;mix-blend-mode: multiply"/>
              <path d="M269,374.08l-8.08,4.56a1.12,1.12,0,0,1-1.68-1v-3.53a3,3,0,0,1,1.62-2.68l2.54-1.34a3,3,0,0,1,3.21.24l2.51,1.84A1.12,1.12,0,0,1,269,374.08Z" style="fill: #ffc950"/>
              <path d="M302.62,352.67v2.93a1.08,1.08,0,0,1-.58,1l-3.52,1.8a.82.82,0,0,1-1.15-1l1.4-3.82a2.29,2.29,0,0,1,1.16-1.27l1.15-.55A1.07,1.07,0,0,1,302.62,352.67Z" style="fill: #ffc950"/>
              <path d="M268.31,383.64l-6.06,3.48,1.78,1.19a2.77,2.77,0,0,0,2.93.08l6.26-3.65L271,383.58A2.75,2.75,0,0,0,268.31,383.64Z" style="fill: #e7f1f7;mix-blend-mode: multiply"/>
              <path d="M304.39,363.32l-6.52,3.74a2.74,2.74,0,0,0-1.21,1.39l-1.56,4,6.85-4a2.78,2.78,0,0,0,1.23-1.51Z" style="fill: #e7f1f7;mix-blend-mode: multiply"/>
              <path d="M293.67,375l.05-1.37a1.9,1.9,0,0,0-2.84-1.65l-12.46,7.16a6.23,6.23,0,0,0-3.12,5.41v1.07Z" style="fill: #e7f1f7;mix-blend-mode: multiply"/>
              <polygon points="278.75 380.18 278.75 383.51 290.78 376.72 290.78 373.3 278.75 380.18" style="fill: #e7f1f7"/>
              <path d="M282.33,369.07c-9.26,4.92-16,10.41-15,12.26s9.28-.63,18.54-5.55,16-10.41,15-12.26S291.58,364.16,282.33,369.07Z" style="mix-blend-mode: color-dodge;fill: url(#radial-gradient-7)"/>
            </g>
          </g>
        </g>
      </g>
    </g>
  </g>
</svg>
